<?xml version="1.0" encoding="UTF-8" standalone="no"?><!DOCTYPE svg PUBLIC "-//W3C//DTD SVG 1.1//EN" "http://www.w3.org/Graphics/SVG/1.1/DTD/svg11.dtd"><svg width="100%" height="100%" viewBox="0 0 240 240" version="1.1" xmlns="http://www.w3.org/2000/svg" xmlns:xlink="http://www.w3.org/1999/xlink" xml:space="preserve" xmlns:serif="http://www.serif.com/" style="fill-rule:evenodd;clip-rule:evenodd;stroke-miterlimit:1.41421;"><g><path d="M139.161,138.091l-33.307,-14.016l-25.984,17.534l13.796,5.805c-0.304,0.258 -0.823,0.557 -0.93,0.607c-0.483,0.22 -1.101,0.384 -1.702,0.495c-1.16,0.215 -2.585,0.179 -3.411,0.737c-1.293,0.872 -0.275,2.455 2.268,3.59c0.074,0.033 0.149,0.066 0.225,0.098c2.708,1.138 5.982,1.336 7.312,0.438c1.08,-0.729 0.249,-1.888 0.894,-2.734c0.053,-0.07 0.608,-0.541 1.077,-0.818l13.779,5.798l10.752,-7.254c-0.044,-0.021 -0.091,-0.043 -0.138,-0.063c-0.533,-0.237 -1.294,-0.491 -1.416,-0.519c-1.604,-0.352 -3.771,0.075 -5.157,-0.508c-1.697,-0.755 -1.35,-2.469 0.738,-3.88c2.112,-1.425 5.206,-1.999 6.912,-1.281c1.057,0.471 1.017,1.214 1.427,1.823c0.215,0.32 0.531,0.65 0.953,0.909c0.05,0.032 0.243,0.128 0.485,0.237c0.204,0.091 0.443,0.189 0.667,0.265l10.76,-7.263Z" style="fill:#9eacd4;fill-rule:nonzero;"/><path d="M103.808,187.301c-0.84,-0.567 -2.289,-0.531 -3.467,-0.748c-0.611,-0.113 -1.239,-0.28 -1.731,-0.505c-0.107,-0.048 -0.636,-0.354 -0.945,-0.615l14.022,-5.901l-10.925,-7.372c0.044,-0.022 0.092,-0.044 0.14,-0.064c0.54,-0.242 1.314,-0.501 1.438,-0.528c1.628,-0.358 3.832,0.077 5.298,-0.54c1.667,-0.744 1.316,-2.486 -0.808,-3.919c-2.147,-1.449 -5.292,-2.032 -7.077,-1.281c-1.022,0.457 -0.981,1.212 -1.398,1.83c-0.219,0.325 -0.541,0.661 -0.969,0.925c-0.051,0.032 -0.249,0.131 -0.497,0.242c-0.207,0.093 -0.448,0.191 -0.673,0.268l-10.939,-7.381l-33.855,14.245l26.41,17.821l14.007,-5.894c0.476,0.282 1.039,0.76 1.094,0.832c0.655,0.861 -0.189,2.038 0.908,2.779c1.353,0.912 4.679,0.712 7.432,-0.445c0.077,-0.033 0.153,-0.066 0.228,-0.1c2.586,-1.152 3.621,-2.762 2.307,-3.649Z" style="fill:#9eacd4;fill-rule:nonzero;"/><path d="M129.995,154.072l14.005,-5.893c0.477,0.281 1.041,0.76 1.095,0.831c0.656,0.862 -0.19,2.038 0.909,2.78c1.353,0.912 4.678,0.712 7.431,-0.445c0.077,-0.033 0.153,-0.066 0.227,-0.099c2.586,-1.154 3.623,-2.764 2.308,-3.651c-0.84,-0.566 -2.289,-0.53 -3.468,-0.748c-0.611,-0.112 -1.238,-0.28 -1.73,-0.504c-0.108,-0.05 -0.636,-0.355 -0.945,-0.616l14.023,-5.9l26.41,17.821l-33.855,14.246l-10.927,-7.373c0.043,-0.022 0.09,-0.042 0.136,-0.062c0.54,-0.241 1.319,-0.502 1.442,-0.529c1.629,-0.358 3.834,0.077 5.242,-0.517c1.725,-0.768 1.373,-2.509 -0.75,-3.942c-2.147,-1.449 -5.292,-2.033 -7.024,-1.303c-1.076,0.479 -1.034,1.233 -1.45,1.851c-0.221,0.326 -0.542,0.662 -0.97,0.926c-0.052,0.031 -0.249,0.13 -0.498,0.241c-0.206,0.093 -0.448,0.192 -0.671,0.268l-10.94,-7.382Z" style="fill:#9eacd4;fill-rule:nonzero;"/><path d="M175.109,192.775l-13.781,-5.798c-0.469,0.276 -1.022,0.748 -1.075,0.817c-0.645,0.849 0.186,2.006 -0.894,2.735c-1.331,0.897 -4.604,0.702 -7.312,-0.438c-0.075,-0.032 -0.151,-0.065 -0.225,-0.098c-2.543,-1.134 -3.561,-2.718 -2.27,-3.59c0.827,-0.558 2.252,-0.522 3.412,-0.737c0.602,-0.111 1.219,-0.274 1.703,-0.496c0.105,-0.048 0.625,-0.349 0.929,-0.606l-13.796,-5.805l-10.762,7.263c-0.223,-0.076 -0.463,-0.175 -0.666,-0.265c-0.243,-0.109 -0.435,-0.205 -0.485,-0.237c-0.421,-0.259 -0.739,-0.589 -0.954,-0.91c-0.41,-0.609 -0.369,-1.351 -1.375,-1.799c-1.757,-0.741 -4.85,-0.167 -6.963,1.258c-2.088,1.411 -2.434,3.125 -0.793,3.856c1.441,0.608 3.609,0.179 5.211,0.532c0.122,0.026 0.883,0.282 1.414,0.518c0.049,0.021 0.095,0.043 0.139,0.064l-10.75,7.253l33.309,14.017l25.984,-17.534Z" style="fill:#9eacd4;fill-rule:nonzero;"/><path d="M96.752,135.446c0,4.675 -8.518,8.465 -19.026,8.465c-10.507,0 -19.025,-3.79 -19.025,-8.465c0,-4.675 8.518,-8.465 19.025,-8.465c10.508,0 19.026,3.79 19.026,8.465Z" style="fill:#9eacd4;fill-rule:nonzero;"/><path d="M82.848,134.879l0.312,-0.058l0.312,-2.619l-0.819,-0.971l0.195,3.648Z" style="fill:#561036;fill-rule:nonzero;"/><path d="M82.472,134.666l0.376,0.213l-0.059,-4.288l-0.662,-0.151l0.345,4.226Z" style="fill:#142035;fill-rule:nonzero;"/><path d="M85.356,129.269l0.696,2.299c0,0 0.947,2.215 1.728,3.089c0,0 1.41,1.933 -1.228,1.804c0,0 -2.814,-0.149 -2.771,-1.955c0.036,-1.553 -1.39,-3.48 -1.39,-3.48c-0.525,-0.908 0.006,-1.645 0.184,-1.853l0.488,-0.557l2.366,-0.414l-0.073,1.067Z" style="fill:#e69375;fill-rule:nonzero;"/><path d="M87.933,135.369c-1.163,0.218 -2.341,-0.215 -3.064,-0.927c-0.732,-0.72 -1.567,-3.358 -1.29,-2.482c0.115,0.363 -0.746,-2.843 -0.516,-3.344l-0.488,0.557c-0.178,0.208 -0.757,0.993 -0.233,1.902c0,0 1.475,1.878 1.439,3.431c-0.043,1.806 2.771,1.955 2.771,1.955c1.584,0.078 1.708,-0.588 1.555,-1.133c-0.055,0.017 -0.113,0.031 -0.174,0.041Z" style="fill:#142035;fill-rule:nonzero;"/><path d="M89.259,136.141c0,0 0.398,0.751 -0.863,0.751c0,0 -4.722,-0.3 -4.72,-2.329l-0.002,-1.634c0,0 0.372,2.333 3.288,2.338c0,0 1.294,0 0.626,-0.825l1.671,1.699Z" style="fill:#142035;fill-rule:nonzero;"/><path d="M81.659,26.825c0,1.735 -1.407,3.142 -3.142,3.142c-1.736,0 -3.142,-1.407 -3.142,-3.142c0,-1.736 1.406,-3.143 3.142,-3.143c1.735,0 3.142,1.407 3.142,3.143Z" style="fill:#192653;fill-rule:nonzero;"/><path d="M80.769,41.307l6.189,0c-0.281,-0.901 -0.864,-3.233 0.038,-4.821l-6.253,-4.106c0,0 1.112,6.89 0.026,8.927Z" style="fill:#f7a583;fill-rule:nonzero;"/><path d="M81.463,37.419c0.371,0.947 0.97,1.409 1.949,1.718c1.083,0.343 2.124,0.411 3.142,0.233c-0.098,-0.95 -0.046,-2.026 0.442,-2.884l-6.253,-4.106c0,0 0.339,2.102 0.46,4.326c0.085,0.238 0.167,0.476 0.26,0.713Z" style="fill:#e1866e;fill-rule:nonzero;"/><path d="M88.186,37.92l0.329,-0.931l0.801,-2.739c0.111,-0.435 0.163,-1.029 0.014,-1.453c-0.179,-0.511 -0.318,-1.343 -0.127,-2.273c0.509,-2.492 -0.597,-3.793 -0.597,-3.793c-1.454,-2.291 -4.887,-2.28 -4.887,-2.28c-4.243,0.22 -4.59,4.329 -4.59,4.329c-0.681,2.735 1.499,5.004 1.502,5.008c0.276,0.287 0.306,0.753 0.439,1.108c0.142,0.38 0.357,0.734 0.623,1.039c0.597,0.684 1.375,1.339 2.175,1.747c0.759,0.386 2.229,0.782 3.272,0.771c0.433,-0.005 0.858,0.001 1.046,-0.533Z" style="fill:#f7a583;fill-rule:nonzero;"/><path d="M68.377,135.371l0.315,0.046l1.136,-2.381l-0.465,-1.184l-0.986,3.519Z" style="fill:#561036;fill-rule:nonzero;"/><path d="M68.09,135.049l0.287,0.322l1.32,-4.081l-0.578,-0.354l-1.029,4.113Z" style="fill:#142035;fill-rule:nonzero;"/><path d="M72.552,130.861c-0.062,1.917 -0.204,4.069 0.568,5.882c0,0 0.716,2.283 -1.742,1.314c0,0 -2.617,-1.044 -1.998,-2.74c0.533,-1.459 -0.2,-3.741 -0.2,-3.741c-0.205,-1.029 0.534,-1.557 0.769,-1.697l0.641,-0.371l2.46,0l-0.498,1.353Z" style="fill:#f7a583;fill-rule:nonzero;"/><path d="M73.037,137.468c-1.172,-0.168 -2.149,-0.955 -2.605,-1.863c-0.463,-0.916 -0.407,-3.683 -0.426,-2.764c-0.007,0.38 0.206,-2.933 0.584,-3.333l-0.641,0.371c-0.235,0.14 -1.036,0.698 -0.83,1.727c0,0 0.794,2.252 0.261,3.711c-0.619,1.696 1.998,2.74 1.998,2.74c1.475,0.582 1.807,-0.009 1.837,-0.574c-0.058,-0.001 -0.117,-0.006 -0.178,-0.015Z" style="fill:#142035;fill-rule:nonzero;"/><path d="M74.045,138.624c0,0 0.135,0.838 -1.059,0.434c0,0 -4.376,-1.799 -3.723,-3.719l0.523,-1.55c0,0 -0.397,2.328 2.363,3.27c0,0 1.226,0.415 0.858,-0.581l1.038,2.146Z" style="fill:#142035;fill-rule:nonzero;"/><path d="M75.27,102.229c-3.138,5.795 -3.694,8.153 -4.252,12.56c-0.325,2.563 -0.217,13.358 -0.553,14.968c-0.141,0.668 2.397,0.302 2.397,0.302c0.463,-1.13 7.852,-25.933 7.852,-25.933c0,0 0.826,-2.57 0.14,-3.016c-3.445,-2.244 -4.216,-1.407 -5.584,1.119Z" style="fill:#f7a583;fill-rule:nonzero;"/><path d="M72.938,130.577c0.464,-1.13 7.776,-26.451 7.776,-26.451c0,0 0.826,-2.57 0.14,-3.016c-3.445,-2.244 -4.216,-1.407 -5.584,1.119c-3.138,5.795 -3.694,8.153 -4.252,12.56c-0.325,2.563 -0.854,12.985 -1.19,14.597c0,0 1.877,2.236 3.11,1.191Z" style="fill:#1e2732;fill-rule:nonzero;"/><path d="M89.357,60.322c0,0 2.412,10.207 2.088,11.322c-0.932,3.212 -9.585,7.719 -17.475,1.147c0,0 1.804,-7.55 5.549,-13.937c0,0 1.377,1.422 9.838,1.468Z" style="fill:#1e2732;fill-rule:nonzero;"/><path d="M88.128,39.58c0,0 3.156,6.102 4.565,9.45c-0.59,3.924 -2.722,9.745 -3.579,10.973c-1.878,2.69 -10.464,0.289 -10.464,0.289l-2.474,-8.263c7.223,-2.593 3.419,-10.205 3.419,-10.205l1.133,-0.715c0,0 1.155,3.741 5.857,3.608c0,0 1.544,-1.006 0.408,-5.273c0,0 0.678,0.021 1.135,0.136Z" style="fill:#6652a2;fill-rule:nonzero;"/><path d="M80.27,74.393c0,0 0.831,16.467 3.878,25.324c0.453,1.32 5.66,-0.434 5.66,-0.434c0,0 2.627,-14.169 2.469,-20.04c-0.089,-3.317 -1.276,-10.472 -1.276,-10.472c0,0 -9.764,-1.276 -10.731,5.622Z" style="fill:#e69375;fill-rule:nonzero;"/><path d="M84.297,99.658l5.511,-0.375c0,0 -3.386,28.111 -3.693,29.292c0,0 -2.369,0.858 -2.321,0.177c0.115,-1.641 -1.861,-14.257 -1.922,-16.84c-0.097,-4.149 0.066,-6.77 2.425,-12.254Z" style="fill:#e69375;fill-rule:nonzero;"/><path d="M80.27,74.393c0,0 0.831,16.467 3.878,25.324c0.453,1.32 5.66,-0.434 5.66,-0.434c0,0 2.627,-14.169 2.469,-20.04c-0.089,-3.317 -1.276,-10.472 -1.276,-10.472c0,0 -9.764,-1.276 -10.731,5.622Z" style="fill:#161f29;fill-rule:nonzero;"/><path d="M86.798,128.752c0.558,-1.085 3.01,-29.469 3.01,-29.469l-5.511,0.375c-2.359,5.484 -2.522,8.105 -2.425,12.254c0.061,2.583 1.311,15.199 1.196,16.84c0,0 2.995,1.426 3.73,0Z" style="fill:#161f29;fill-rule:nonzero;"/><path d="M98.096,59.57l-4.178,-15.145c-1.504,-4.051 -3.748,-4.15 -3.748,-4.15c-4.301,0.651 -1.548,8.199 -1.548,8.199l5.31,12.58" style="fill:#e69375;fill-rule:nonzero;"/><path d="M110.202,70.886c-1.805,-1.34 -1.931,-1.704 -2.204,-2.249c-1.177,-2.339 1.827,-1.826 2.56,-1.542c0.42,0.164 0.294,1.203 1.458,2.666c0,0 1.94,1.547 2.475,1.536c0,0 0.534,0.159 0.476,0.551c0,0 -1.62,0.661 -4.765,-0.962Z" style="fill:#e69375;fill-rule:nonzero;"/><path d="M97.772,58.69l12.234,9.255c0.338,1.687 -0.435,1.808 -0.435,1.808l-9.868,-4.49c-4.225,-1.829 -5.695,-3.933 -5.695,-3.933c0,0 -1.727,-1.617 1.022,-3.239c0,0 1.249,-0.719 2.742,0.599Z" style="fill:#e69375;fill-rule:nonzero;"/><path d="M110.21,66.99c0,0 -0.535,1.035 0.863,0.969l1.48,-0.816c0,0 0.445,-0.16 0.358,-0.576c0,0 -0.126,-0.25 -0.584,-0.089l-2.117,0.512Z" style="fill:#e69375;fill-rule:nonzero;"/><path d="M73.532,75.77c0,0 0.063,16.474 2.236,25.584c0.324,1.359 5.287,0.942 5.287,0.942c0,0 3.239,-15.579 3.651,-21.437c0.234,-3.311 0.896,-9.105 0.896,-9.105c0,0 -11.619,-1.152 -12.07,4.016Z" style="fill:#f7a583;fill-rule:nonzero;"/><path d="M75.935,43.805c-2.532,1.851 -1.238,4.635 -1.238,4.635l4.783,11.615c0,0 7.756,2.638 9.634,-0.052c0.857,-1.228 1.65,-4.484 2.691,-9.181c0.708,-3.191 0.756,-8.766 -1.041,-10.417c-1.036,-0.953 -4.389,-0.933 -4.414,-1.046l-5.433,1.75l-4.982,2.696Z" style="fill:#f7a583;fill-rule:nonzero;"/><path d="M86.175,59.107c0.459,-0.083 2.939,0.896 2.939,0.896c0,0 1.785,7.612 1.887,8.768c0.101,1.157 -7.858,7.148 -16.749,3.738c0,0 4.49,-10.591 5.146,-12.805c0.753,-2.542 6.777,-0.597 6.777,-0.597Z" style="fill:#f7a583;fill-rule:nonzero;"/><path d="M90.492,44.288c0,0 2.625,3.09 2.845,5.386c0.123,1.278 -1.491,3.418 -2.299,4.207c-0.572,0.559 -3.962,-7.46 -0.546,-9.593Z" style="fill:#6652a2;fill-rule:nonzero;"/><path d="M76.43,69.986c0,0 -3.135,0.696 -2.852,6.443c0.276,5.612 10.494,6.779 11.806,1.124c1.411,-6.086 -3.374,-9.653 -8.954,-7.567Z" style="fill:#1e2732;fill-rule:nonzero;"/><path d="M81.106,35.373c-0.022,-1.938 0.028,-1.819 0.028,-1.819c0.045,-0.567 1.156,0.654 1.133,-0.084c-0.105,-3.376 1.121,-4.983 1.601,-5.244c1.303,-0.704 2.678,-0.907 3.767,-0.714c1.708,0.304 1.642,2.577 1.642,2.577c1.455,-8.322 -7.826,-5.663 -7.826,-5.663c-4.52,1.187 -4.054,5.447 -4.054,5.447c-0.554,4.573 3.78,7.216 3.78,7.216l-0.071,-1.716Z" style="fill:#2a3b70;fill-rule:nonzero;"/><path d="M81.403,34.713c-0.152,0.117 -0.346,0.184 -0.589,0.179c-0.657,-0.009 -1.203,-0.624 -1.218,-1.372c-0.015,-0.747 0.504,-1.345 1.16,-1.336c0.312,0.004 0.598,0.146 0.815,0.371c0.315,0.33 0.325,0.94 0.25,1.359c-0.059,0.336 -0.191,0.624 -0.418,0.799Z" style="fill:#f8a07d;fill-rule:nonzero;"/><path d="M81.022,32.88c-0.039,-0.393 -0.834,-0.018 -0.713,0.204c0.07,0.127 0.209,0.22 0.318,0.309c0.15,0.122 0.223,0.234 0.244,0.43c0.003,0.022 0.007,0.09 -0.015,0.106c-0.103,0.071 -0.44,-0.312 -0.514,-0.393c-0.145,-0.159 -0.165,-0.431 -0.095,-0.628c0.074,-0.209 0.211,-0.307 0.435,-0.294c0.179,0.011 0.36,0.023 0.35,0.245c0,0.004 -0.008,0.041 -0.01,0.021Z" style="fill:#e98b70;fill-rule:nonzero;"/><path d="M80.767,33.287c0.083,-0.082 0.162,-0.013 0.247,0.047c0.078,0.058 0.122,0.139 0.142,0.232c0.046,0.204 0.018,0.477 -0.099,0.655c-0.094,0.143 -0.253,0.232 -0.426,0.227c-0.239,-0.007 -0.311,-0.218 -0.32,-0.421c-0.002,-0.053 -0.006,-0.181 0.046,-0.215c0.058,-0.037 0.098,0.052 0.137,0.091c0.053,0.05 0.131,0.07 0.202,0.076c0.136,0.011 0.27,-0.058 0.356,-0.159c0.015,-0.018 0.029,-0.039 0.036,-0.061c0,0.132 -0.007,0.161 -0.021,0.089c-0.01,-0.034 -0.026,-0.065 -0.045,-0.094c-0.055,-0.092 -0.149,-0.154 -0.211,-0.241c-0.029,-0.041 -0.085,-0.183 -0.044,-0.226Z" style="fill:#e98b70;fill-rule:nonzero;"/><path d="M85.168,31.822c0.023,0.236 -0.088,0.439 -0.248,0.454c-0.159,0.016 -0.307,-0.162 -0.33,-0.397c-0.023,-0.236 0.088,-0.439 0.248,-0.454c0.159,-0.016 0.307,0.163 0.33,0.397Z" style="fill:#3b2314;fill-rule:nonzero;"/><path d="M88.433,31.383c0.008,0.236 -0.114,0.432 -0.275,0.437c-0.16,0.006 -0.296,-0.18 -0.305,-0.416c-0.009,-0.236 0.114,-0.432 0.274,-0.438c0.16,-0.006 0.297,0.18 0.306,0.417Z" style="fill:#3b2314;fill-rule:nonzero;"/><path d="M83.761,31.506c0.614,-0.645 2.057,-0.594 2.057,-0.594c0,0 0.096,-0.005 0.07,-0.299c0,0 -0.007,-0.26 -0.215,-0.235c0,0 -1.836,-0.121 -1.912,1.128Z" style="fill:#2a3b70;fill-rule:nonzero;"/><path d="M89.261,30.272c-0.64,-0.519 -1.819,-0.114 -1.819,-0.114c-0.207,0.03 -0.146,0.283 -0.146,0.283c0.052,0.29 0.147,0.27 0.147,0.27c0,0 0.974,-0.3 1.737,-0.123c0.028,-0.105 0.057,-0.21 0.081,-0.316Z" style="fill:#2a3b70;fill-rule:nonzero;"/><path d="M88.02,34.804l-2.325,0.43c-0.122,0.023 -0.171,0.095 -0.105,0.161c0,0 0.669,0.669 1.422,0.527c0.754,-0.141 1.131,-1.006 1.131,-1.006c0.033,-0.075 -0.024,-0.119 -0.123,-0.112Z" style="fill:#fff;fill-rule:nonzero;"/><path d="M86.35,34.072c1.218,-0.088 1.285,-0.407 1.285,-0.407l-0.639,-1.285c0,0 0.147,1.285 -0.646,1.692Z" style="fill:#e98b70;fill-rule:nonzero;"/><path d="M73.532,75.77c0,0 0.063,16.474 2.236,25.584c0.324,1.359 5.287,0.942 5.287,0.942c0,0 3.239,-15.579 3.651,-21.437c0.234,-3.311 0.896,-9.105 0.896,-9.105c0,0 -11.619,-1.152 -12.07,4.016Z" style="fill:#1e2732;fill-rule:nonzero;"/><path d="M89.357,60.322c0,0 2.412,10.207 2.088,11.322c-0.932,3.212 -9.585,7.719 -17.475,1.147c0,0 1.804,-7.55 5.549,-13.937c0,0 1.377,1.422 9.838,1.468Z" style="fill:#1e2732;fill-rule:nonzero;"/><path d="M78.65,60.292c0,0 8.829,2.72 10.707,0.03c0.858,-1.228 2.746,-7.368 3.336,-11.292c-1.409,-3.348 -4.565,-9.45 -4.565,-9.45c-0.457,-0.115 -1.135,-0.136 -1.135,-0.136c1.136,4.267 -0.408,5.273 -0.408,5.273c-4.702,0.133 -5.857,-3.608 -5.857,-3.608l-1.133,0.715c0,0 3.503,7.274 -3.257,10.601c0,0 -0.162,7.804 2.312,7.867Z" style="fill:#6652a2;fill-rule:nonzero;"/><path d="M81.435,34.85c0,0.222 -0.18,0.402 -0.403,0.402c-0.222,0 -0.402,-0.18 -0.402,-0.402c0,-0.222 0.18,-0.402 0.402,-0.402c0.223,0 0.403,0.18 0.403,0.402Z" style="fill:#fff;fill-rule:nonzero;"/><path d="M79.727,44.865c1.374,1.461 1.304,3.758 -0.157,5.131c-1.46,1.373 -6.049,3.993 -6.092,1.988c-0.085,-3.939 0.069,-6.08 1.53,-7.453c1.46,-1.374 3.345,-1.126 4.719,0.334Z" style="fill:#f7a583;fill-rule:nonzero;"/><path d="M79.891,48.196l-3.172,-1.829l-3.187,1.995c0,0 -1.866,11.887 -1.179,14.608c0.733,2.899 2.064,0.763 2.694,-0.03c0,0 5.203,-12.434 4.844,-14.744Z" style="fill:#f7a583;fill-rule:nonzero;"/><path d="M72.835,64.13c0,0 5.704,4.074 10.766,6.289c0,0 1.673,-0.702 0.836,-1.475c-1.42,-1.313 -7.629,-7.259 -9.062,-8.574c-2.54,-0.868 -2.54,3.76 -2.54,3.76Z" style="fill:#f7a583;fill-rule:nonzero;"/><path d="M86.487,72.693c-2.063,-0.892 -2.269,-1.218 -2.659,-1.686c-1.681,-2.007 1.36,-2.195 2.139,-2.085c0.447,0.063 0.562,1.104 2.029,2.262c0,0 2.242,1.061 2.762,0.929c0,0 0.555,0.031 0.587,0.427c0,0 -1.426,1.014 -4.858,0.153Z" style="fill:#f7a583;fill-rule:nonzero;"/><path d="M85.871,68.897c0,0 -0.884,0.76 0.437,1.222l1.677,-0.202c0,0 0.473,0.019 0.547,-0.4c0,0 -0.023,-0.278 -0.507,-0.3l-2.154,-0.32Z" style="fill:#f7a583;fill-rule:nonzero;"/><path d="M121.61,83.686c-0.024,-0.006 -0.05,-0.011 -0.075,-0.017c-0.037,-0.008 -0.076,-0.017 -0.114,-0.024c-0.027,-0.006 -0.055,-0.01 -0.084,-0.015c-0.027,-0.005 -0.053,-0.01 -0.08,-0.014l-0.058,6.492l-10.75,7.254l0.068,-7.747l8.906,-6.009c-0.131,0.015 -0.262,0.034 -0.396,0.056c-0.028,0.004 -0.056,0.009 -0.085,0.014c-0.051,0.009 -0.101,0.018 -0.152,0.028c-0.035,0.007 -0.069,0.013 -0.103,0.02c-0.048,0.01 -0.098,0.02 -0.148,0.031c-0.03,0.006 -0.061,0.014 -0.092,0.021c-0.078,0.018 -0.156,0.036 -0.234,0.056c-0.021,0.005 -0.041,0.01 -0.062,0.015c-0.097,0.025 -0.193,0.052 -0.289,0.08c-0.017,0.005 -0.034,0.011 -0.05,0.016c-0.133,0.039 -0.265,0.081 -0.397,0.125c-0.005,0.003 -0.009,0.004 -0.014,0.006c-0.133,0.045 -0.264,0.093 -0.395,0.144c-0.009,0.005 -0.019,0.008 -0.028,0.011c-0.148,0.059 -0.295,0.121 -0.44,0.186c-0.007,0.003 -0.015,0.006 -0.02,0.009c-0.147,0.066 -0.292,0.137 -0.434,0.21c-0.005,0.002 -0.009,0.004 -0.014,0.007c-0.144,0.074 -0.286,0.153 -0.424,0.234c-0.002,0.002 -0.005,0.003 -0.008,0.005c-0.14,0.082 -0.278,0.169 -0.41,0.259c-1.186,0.801 -1.811,1.7 -1.818,2.465c0.023,-2.582 0.045,-5.164 0.069,-7.746c0.006,-0.766 0.631,-1.665 1.817,-2.466c0.133,-0.09 0.27,-0.176 0.41,-0.259c0.004,-0.002 0.006,-0.003 0.008,-0.005c0.139,-0.081 0.279,-0.159 0.424,-0.234c0.004,-0.002 0.009,-0.005 0.015,-0.007c0.141,-0.074 0.286,-0.143 0.431,-0.21c0.008,-0.003 0.015,-0.006 0.023,-0.009c0.143,-0.065 0.289,-0.127 0.437,-0.185c0.004,-0.001 0.006,-0.003 0.009,-0.003c0.008,-0.004 0.016,-0.007 0.025,-0.009c0.128,-0.051 0.258,-0.098 0.388,-0.143c0.005,-0.003 0.012,-0.005 0.018,-0.007c0.131,-0.044 0.261,-0.085 0.392,-0.124c0.011,-0.004 0.023,-0.008 0.035,-0.011c0.007,-0.002 0.015,-0.005 0.021,-0.007c0.096,-0.027 0.191,-0.053 0.286,-0.078c0.022,-0.006 0.043,-0.011 0.065,-0.016c0.077,-0.02 0.153,-0.038 0.229,-0.056c0.016,-0.003 0.032,-0.007 0.047,-0.011c0.018,-0.004 0.035,-0.007 0.051,-0.011c0.048,-0.01 0.095,-0.02 0.142,-0.029c0.036,-0.008 0.072,-0.015 0.108,-0.021c0.048,-0.01 0.095,-0.018 0.144,-0.027c0.025,-0.004 0.049,-0.009 0.075,-0.013c0.006,-0.001 0.013,-0.002 0.019,-0.002c0.132,-0.022 0.263,-0.04 0.394,-0.056c0.01,-0.002 0.023,-0.004 0.034,-0.005c0.008,-0.001 0.017,-0.001 0.025,-0.002c0.114,-0.013 0.227,-0.024 0.339,-0.031c0.01,-0.001 0.019,-0.002 0.029,-0.003c0.013,0 0.025,0 0.037,-0.001c0.107,-0.007 0.211,-0.012 0.315,-0.014c0.001,-0.001 0.002,-0.001 0.003,-0.001c0.002,0 0.004,0 0.006,0c0.097,-0.001 0.193,0 0.289,0.002c0.012,0 0.026,0 0.038,0c0.012,0 0.023,0.001 0.033,0.002c0.096,0.003 0.191,0.008 0.284,0.015c0.003,0.001 0.005,0.001 0.009,0.001c0.007,0 0.013,0.002 0.021,0.002c0.096,0.009 0.191,0.02 0.284,0.032c0.01,0.001 0.021,0.002 0.031,0.004c0.008,0.001 0.015,0.002 0.022,0.004c0.037,0.005 0.073,0.012 0.111,0.018c0.029,0.005 0.058,0.01 0.088,0.016c0.036,0.007 0.071,0.014 0.106,0.023c0.025,0.005 0.05,0.009 0.074,0.015c0.003,0.001 0.005,0.002 0.009,0.003c0.083,0.02 0.163,0.043 0.243,0.068c0.018,0.005 0.036,0.011 0.054,0.018c0.08,0.026 0.157,0.054 0.231,0.085c0.06,0.027 0.116,0.054 0.169,0.082c0.016,0.009 0.03,0.018 0.046,0.026c0.018,0.011 0.039,0.021 0.057,0.032c0.014,0.009 0.029,0.02 0.044,0.029c0.019,0.012 0.038,0.024 0.056,0.037c0.03,0.02 0.058,0.04 0.084,0.06c0.016,0.013 0.033,0.024 0.047,0.037c0.006,0.004 0.012,0.008 0.016,0.012c0.033,0.026 0.062,0.054 0.091,0.081c0.004,0.004 0.007,0.008 0.012,0.011c0.023,0.022 0.044,0.045 0.064,0.067l0,0.002l0,-0.002c0.007,0.007 0.013,0.015 0.02,0.021c0.01,0.012 0.019,0.023 0.029,0.035c0.02,0.024 0.04,0.048 0.058,0.073c0.009,0.012 0.017,0.023 0.026,0.034c0.003,0.006 0.009,0.012 0.012,0.017c0.009,0.014 0.017,0.027 0.025,0.039c0.016,0.024 0.032,0.048 0.046,0.073c0.012,0.018 0.022,0.036 0.032,0.054c0.013,0.024 0.027,0.049 0.041,0.074c0.003,0.008 0.007,0.014 0.012,0.022c0.004,0.009 0.008,0.017 0.011,0.025c0.022,0.044 0.043,0.087 0.062,0.131c0.004,0.007 0.007,0.015 0.011,0.022c0.026,0.059 0.052,0.119 0.076,0.178c0.017,0.038 0.034,0.077 0.051,0.115c0.008,0.018 0.016,0.035 0.024,0.053c0.023,0.051 0.046,0.102 0.071,0.152c0.014,0.025 0.027,0.05 0.041,0.075c0.008,0.014 0.015,0.027 0.022,0.041c0.023,0.039 0.046,0.077 0.072,0.114c0.015,0.024 0.034,0.048 0.051,0.072c0.024,0.034 0.049,0.068 0.076,0.102c0.012,0.014 0.023,0.029 0.034,0.044c0.036,0.045 0.075,0.089 0.114,0.133c0.003,0.002 0.005,0.005 0.007,0.008c0.042,0.045 0.087,0.09 0.132,0.134c0.014,0.013 0.029,0.026 0.042,0.038c0.034,0.032 0.068,0.063 0.104,0.094c0.018,0.014 0.035,0.029 0.053,0.044c0.036,0.029 0.074,0.058 0.113,0.087c0.017,0.012 0.034,0.025 0.051,0.038c0.057,0.04 0.114,0.079 0.175,0.117c0.003,0.001 0.007,0.004 0.012,0.006c0.004,0.003 0.01,0.006 0.018,0.01c0.003,0.002 0.008,0.005 0.011,0.006c0.008,0.005 0.016,0.009 0.026,0.014c0.006,0.003 0.012,0.007 0.018,0.01c0.01,0.005 0.02,0.01 0.032,0.015c0.006,0.003 0.014,0.008 0.021,0.011c0.011,0.006 0.023,0.012 0.036,0.018c0.009,0.005 0.02,0.01 0.03,0.014c0.012,0.007 0.025,0.013 0.038,0.019c0.014,0.007 0.031,0.015 0.045,0.022c0.01,0.004 0.02,0.008 0.029,0.013c0.018,0.008 0.036,0.017 0.054,0.025c0.009,0.005 0.019,0.009 0.029,0.014c0.028,0.012 0.057,0.025 0.087,0.039c0.204,0.091 0.443,0.19 0.667,0.265l10.76,-7.262l-0.068,7.746l-10.76,7.262c-0.224,-0.075 -0.463,-0.173 -0.667,-0.264c-0.03,-0.014 -0.059,-0.027 -0.088,-0.04c-0.005,-0.003 -0.01,-0.005 -0.014,-0.007c-0.024,-0.011 -0.047,-0.021 -0.068,-0.031c-0.009,-0.004 -0.017,-0.008 -0.025,-0.012c-0.017,-0.008 -0.034,-0.016 -0.05,-0.024c-0.01,-0.004 -0.02,-0.009 -0.03,-0.014c-0.013,-0.006 -0.026,-0.012 -0.038,-0.018c-0.008,-0.004 -0.015,-0.008 -0.023,-0.011c-0.012,-0.007 -0.024,-0.013 -0.035,-0.018c-0.007,-0.004 -0.012,-0.007 -0.018,-0.009c-0.011,-0.006 -0.022,-0.011 -0.031,-0.016c-0.006,-0.003 -0.009,-0.006 -0.014,-0.008c-0.009,-0.005 -0.018,-0.009 -0.024,-0.013c-0.004,-0.002 -0.006,-0.003 -0.009,-0.005c-0.006,-0.003 -0.012,-0.006 -0.015,-0.009c-0.001,0 -0.002,-0.001 -0.004,-0.002c-0.061,-0.037 -0.118,-0.076 -0.174,-0.116c-0.019,-0.013 -0.036,-0.026 -0.054,-0.039c-0.037,-0.028 -0.074,-0.057 -0.111,-0.086c-0.009,-0.008 -0.019,-0.015 -0.028,-0.022c-0.009,-0.008 -0.017,-0.015 -0.026,-0.023c-0.035,-0.03 -0.069,-0.06 -0.101,-0.091c-0.015,-0.014 -0.03,-0.027 -0.043,-0.04c-0.047,-0.044 -0.091,-0.089 -0.131,-0.134c-0.002,-0.001 -0.002,-0.001 -0.002,-0.001c-0.003,-0.004 -0.005,-0.007 -0.009,-0.01c-0.039,-0.043 -0.077,-0.087 -0.112,-0.13c-0.011,-0.014 -0.022,-0.03 -0.033,-0.044c-0.028,-0.034 -0.054,-0.068 -0.078,-0.103c-0.006,-0.008 -0.013,-0.016 -0.018,-0.024c-0.012,-0.016 -0.022,-0.031 -0.032,-0.047c-0.026,-0.037 -0.049,-0.075 -0.071,-0.114c-0.01,-0.018 -0.02,-0.036 -0.03,-0.053c-0.01,-0.02 -0.022,-0.04 -0.031,-0.06c-0.001,-0.001 -0.001,-0.002 -0.001,-0.002c-0.028,-0.052 -0.051,-0.104 -0.075,-0.155c-0.006,-0.015 -0.012,-0.029 -0.018,-0.044c-0.02,-0.046 -0.041,-0.092 -0.061,-0.138c-0.023,-0.053 -0.045,-0.107 -0.069,-0.16c-0.005,-0.009 -0.009,-0.02 -0.014,-0.029c-0.019,-0.041 -0.038,-0.083 -0.058,-0.124c-0.009,-0.017 -0.017,-0.034 -0.026,-0.05c-0.013,-0.024 -0.026,-0.048 -0.04,-0.072c-0.01,-0.019 -0.02,-0.038 -0.032,-0.056c-0.014,-0.024 -0.03,-0.048 -0.046,-0.073c-0.012,-0.017 -0.025,-0.037 -0.037,-0.054c-0.009,-0.012 -0.018,-0.024 -0.026,-0.036c-0.019,-0.024 -0.038,-0.048 -0.058,-0.071c-0.01,-0.012 -0.02,-0.024 -0.03,-0.036c-0.026,-0.03 -0.055,-0.059 -0.083,-0.087c-0.004,-0.004 -0.008,-0.008 -0.012,-0.012c-0.033,-0.032 -0.069,-0.063 -0.107,-0.094c-0.014,-0.011 -0.031,-0.024 -0.047,-0.036c-0.026,-0.02 -0.054,-0.04 -0.084,-0.06c-0.018,-0.013 -0.037,-0.025 -0.056,-0.037c-0.032,-0.021 -0.066,-0.041 -0.101,-0.061c-0.015,-0.008 -0.031,-0.017 -0.047,-0.025c-0.052,-0.029 -0.107,-0.057 -0.167,-0.083c-0.075,-0.031 -0.152,-0.059 -0.232,-0.085c-0.018,-0.006 -0.036,-0.013 -0.055,-0.018c-0.078,-0.026 -0.16,-0.048 -0.243,-0.068Z" style="fill:#0093c7;fill-rule:nonzero;"/><path d="M77.14,83.346l0.068,-7.747l13.797,5.805l-0.057,6.448c0.005,0 0.01,0 0.014,0.001c0.03,0.003 0.059,0.007 0.089,0.01c0.11,0.013 0.22,0.024 0.328,0.032c0.011,0.001 0.022,0.002 0.033,0.003c0.079,0.006 0.158,0.012 0.237,0.016c0.029,0.002 0.059,0.003 0.088,0.005c0.06,0.003 0.119,0.005 0.177,0.008c0.022,0 0.044,0 0.065,0.001c0.139,0.003 0.276,0.005 0.41,0.002c0.017,0 0.035,-0.001 0.053,-0.001c0.112,-0.003 0.222,-0.007 0.329,-0.014c0.009,-0.001 0.017,-0.002 0.026,-0.002c0.1,-0.006 0.199,-0.016 0.295,-0.026c0.025,-0.003 0.049,-0.006 0.073,-0.009c0.082,-0.009 0.163,-0.021 0.242,-0.033c0.01,-0.002 0.02,-0.003 0.029,-0.005c0.086,-0.014 0.169,-0.03 0.251,-0.048c0.02,-0.005 0.041,-0.009 0.062,-0.014c0.076,-0.018 0.151,-0.037 0.223,-0.058c0.01,-0.003 0.021,-0.006 0.031,-0.008c0.015,-0.005 0.03,-0.01 0.045,-0.015c0.039,-0.012 0.079,-0.024 0.117,-0.037c0.02,-0.007 0.039,-0.015 0.059,-0.022c0.032,-0.012 0.064,-0.024 0.096,-0.037c0.018,-0.007 0.036,-0.015 0.053,-0.022c0.031,-0.014 0.062,-0.028 0.092,-0.041c0.016,-0.008 0.033,-0.016 0.05,-0.024c0.03,-0.016 0.06,-0.032 0.09,-0.048c0.013,-0.008 0.027,-0.015 0.041,-0.023c0.041,-0.024 0.082,-0.049 0.12,-0.075c0.518,-0.349 0.597,-0.797 0.609,-1.262c0.001,-0.127 0.002,-0.252 0.003,-0.378c0.004,-0.382 0.03,-0.761 0.283,-1.093c0.053,-0.07 0.607,-0.542 1.077,-0.818l13.779,5.798l-0.068,7.747l-13.78,-5.798c-0.469,0.276 -1.023,0.747 -1.076,0.817c-0.227,0.299 -0.271,0.635 -0.28,0.978c-0.001,0.125 -0.003,0.25 -0.004,0.375c-0.004,0.507 -0.049,1.002 -0.611,1.382c-0.038,0.026 -0.079,0.051 -0.12,0.075c-0.014,0.007 -0.029,0.015 -0.042,0.022c-0.029,0.016 -0.059,0.032 -0.089,0.047c-0.017,0.008 -0.034,0.017 -0.051,0.025c-0.03,0.014 -0.06,0.027 -0.091,0.04c-0.017,0.008 -0.035,0.015 -0.053,0.023c-0.01,0.004 -0.019,0.008 -0.029,0.013c-0.022,0.008 -0.046,0.016 -0.069,0.024c-0.019,0.007 -0.038,0.015 -0.057,0.022c-0.037,0.012 -0.076,0.024 -0.115,0.037c-0.016,0.005 -0.031,0.01 -0.048,0.015c-0.002,0.001 -0.005,0.001 -0.008,0.003c-0.006,0.001 -0.013,0.003 -0.02,0.004c-0.073,0.022 -0.149,0.041 -0.227,0.059c-0.011,0.003 -0.021,0.006 -0.032,0.008c-0.009,0.002 -0.019,0.004 -0.027,0.005c-0.083,0.018 -0.167,0.034 -0.253,0.049c-0.002,0.001 -0.003,0.001 -0.005,0.001c-0.006,0.001 -0.012,0.002 -0.019,0.003c-0.08,0.013 -0.164,0.024 -0.248,0.034c-0.013,0.002 -0.024,0.004 -0.036,0.005c-0.011,0.002 -0.023,0.002 -0.033,0.004c-0.098,0.01 -0.196,0.019 -0.297,0.026c-0.002,0 -0.005,0.001 -0.007,0.001c-0.006,0 -0.013,0 -0.02,0c-0.108,0.007 -0.218,0.012 -0.33,0.015c-0.012,0 -0.022,0.001 -0.034,0.001c-0.005,0 -0.011,0 -0.016,0c-0.134,0.002 -0.271,0.001 -0.41,-0.002c-0.011,-0.001 -0.021,0 -0.032,-0.001c-0.012,0 -0.024,0 -0.034,-0.001c-0.059,-0.001 -0.118,-0.004 -0.176,-0.008c-0.03,-0.001 -0.059,-0.002 -0.089,-0.004c-0.084,-0.004 -0.168,-0.01 -0.254,-0.018c-0.004,0 -0.009,0 -0.013,0c-0.001,0 -0.001,0 -0.001,0c-0.11,-0.009 -0.22,-0.021 -0.331,-0.033c-0.029,-0.003 -0.058,-0.006 -0.087,-0.01c-0.098,-0.012 -0.196,-0.024 -0.294,-0.039c-0.013,-0.001 -0.025,-0.002 -0.037,-0.004c-0.004,0 -0.008,-0.002 -0.012,-0.002c-0.092,-0.013 -0.183,-0.028 -0.275,-0.043c-0.016,-0.003 -0.032,-0.006 -0.047,-0.009c-0.077,-0.013 -0.154,-0.027 -0.232,-0.041c-0.034,-0.007 -0.069,-0.015 -0.103,-0.022c-0.059,-0.011 -0.118,-0.023 -0.177,-0.035c-0.039,-0.009 -0.077,-0.018 -0.116,-0.027c-0.055,-0.011 -0.11,-0.024 -0.166,-0.038c-0.014,-0.002 -0.029,-0.006 -0.044,-0.009c-0.012,-0.003 -0.025,-0.007 -0.038,-0.01c-0.149,-0.036 -0.298,-0.075 -0.447,-0.117c-0.02,-0.005 -0.04,-0.011 -0.059,-0.016c-0.152,-0.043 -0.304,-0.089 -0.454,-0.138c-0.015,-0.005 -0.031,-0.01 -0.046,-0.015c-0.155,-0.051 -0.309,-0.104 -0.462,-0.16c-0.009,-0.004 -0.018,-0.008 -0.027,-0.011c-0.159,-0.059 -0.317,-0.121 -0.472,-0.187c-0.076,-0.031 -0.151,-0.065 -0.225,-0.097c-0.104,-0.047 -0.206,-0.094 -0.305,-0.142c-0.034,-0.017 -0.067,-0.033 -0.101,-0.05c-0.064,-0.032 -0.128,-0.065 -0.19,-0.097c-0.037,-0.019 -0.073,-0.039 -0.109,-0.058c-0.057,-0.032 -0.114,-0.063 -0.169,-0.094c-0.035,-0.02 -0.069,-0.04 -0.103,-0.06c-0.021,-0.012 -0.042,-0.024 -0.063,-0.036c-0.034,-0.021 -0.067,-0.042 -0.101,-0.064c-0.029,-0.018 -0.06,-0.036 -0.089,-0.055c-0.06,-0.039 -0.119,-0.078 -0.178,-0.118c-0.018,-0.012 -0.038,-0.025 -0.056,-0.039c-0.075,-0.052 -0.147,-0.104 -0.216,-0.157c-0.018,-0.014 -0.034,-0.028 -0.051,-0.042c-0.041,-0.031 -0.082,-0.064 -0.121,-0.096c-0.008,-0.006 -0.014,-0.012 -0.022,-0.019c-0.05,-0.042 -0.098,-0.085 -0.144,-0.127c-0.021,-0.02 -0.043,-0.038 -0.063,-0.058c-0.065,-0.062 -0.127,-0.123 -0.184,-0.185l0,0c-0.05,-0.055 -0.096,-0.109 -0.14,-0.163c-0.013,-0.018 -0.026,-0.035 -0.039,-0.052c-0.023,-0.03 -0.047,-0.06 -0.068,-0.09c-0.005,-0.008 -0.01,-0.015 -0.016,-0.024c-0.01,-0.015 -0.019,-0.03 -0.029,-0.045c-0.025,-0.038 -0.048,-0.076 -0.069,-0.114c-0.009,-0.016 -0.018,-0.031 -0.027,-0.047c-0.005,-0.009 -0.01,-0.018 -0.015,-0.027c-0.02,-0.04 -0.039,-0.079 -0.055,-0.119c-0.003,-0.006 -0.005,-0.013 -0.008,-0.02c-0.011,-0.028 -0.022,-0.055 -0.032,-0.083c-0.006,-0.018 -0.01,-0.035 -0.015,-0.052c-0.003,-0.009 -0.006,-0.018 -0.008,-0.027c-0.011,-0.04 -0.021,-0.079 -0.027,-0.118c-0.002,-0.008 -0.002,-0.016 -0.004,-0.024c-0.001,-0.008 -0.002,-0.017 -0.003,-0.025c-0.006,-0.045 -0.01,-0.089 -0.01,-0.133c0,-0.005 0,-0.009 0,-0.013c0.016,-1.839 0.033,-3.676 0.049,-5.515l-7.241,-3.046Z" style="fill:#3bafe4;fill-rule:nonzero;"/><path d="M136.5,72.082l-33.307,-14.016l-25.985,17.533l13.797,5.805c-0.304,0.258 -0.823,0.558 -0.93,0.607c-0.484,0.22 -1.102,0.384 -1.702,0.495c-1.161,0.214 -2.585,0.179 -3.412,0.737c-1.292,0.872 -0.275,2.456 2.269,3.59c0.074,0.033 0.149,0.065 0.225,0.098c2.708,1.139 5.981,1.336 7.311,0.437c1.08,-0.728 0.25,-1.886 0.895,-2.733c0.053,-0.07 0.607,-0.542 1.077,-0.818l13.779,5.798l10.751,-7.254c-0.044,-0.021 -0.09,-0.042 -0.139,-0.063c-0.531,-0.237 -1.292,-0.492 -1.414,-0.519c-1.604,-0.352 -3.771,0.075 -5.157,-0.508c-1.697,-0.755 -1.351,-2.469 0.738,-3.879c2.112,-1.425 5.206,-1.999 6.911,-1.282c1.058,0.471 1.017,1.213 1.428,1.822c0.214,0.32 0.531,0.651 0.952,0.911c0.051,0.031 0.243,0.127 0.486,0.236c0.204,0.091 0.443,0.19 0.667,0.265l10.76,-7.262Z" style="fill:#7fbbe6;fill-rule:nonzero;"/><path d="M106.027,103.621c0,0.019 -0.001,0.037 -0.002,0.057c0,0.02 -0.001,0.041 -0.002,0.061c-0.001,0.016 -0.004,0.033 -0.005,0.05c-0.003,0.019 -0.005,0.039 -0.008,0.059c-0.003,0.019 -0.007,0.038 -0.011,0.057c-0.003,0.014 -0.006,0.029 -0.009,0.043c-0.004,0.02 -0.01,0.039 -0.016,0.058c-0.004,0.014 -0.007,0.027 -0.012,0.041c-0.003,0.008 -0.006,0.016 -0.009,0.024c-0.018,0.054 -0.04,0.106 -0.066,0.157c-0.001,0.001 -0.001,0.003 -0.002,0.004c-0.025,0.048 -0.054,0.097 -0.086,0.143c-0.006,0.008 -0.01,0.016 -0.016,0.024c-0.032,0.045 -0.068,0.089 -0.107,0.132c-0.01,0.012 -0.022,0.024 -0.033,0.036c-0.012,0.013 -0.024,0.026 -0.037,0.038c-0.015,0.013 -0.03,0.028 -0.045,0.042c-0.014,0.012 -0.028,0.025 -0.042,0.037c-0.013,0.011 -0.026,0.022 -0.04,0.032c-0.025,0.019 -0.05,0.039 -0.075,0.058c-0.014,0.009 -0.028,0.019 -0.042,0.029c-0.028,0.019 -0.057,0.038 -0.087,0.056c-0.013,0.009 -0.026,0.017 -0.039,0.025c-0.026,0.016 -0.053,0.03 -0.081,0.044c-0.015,0.009 -0.029,0.017 -0.045,0.026c-0.043,0.021 -0.088,0.043 -0.134,0.064c-0.176,0.073 -0.362,0.132 -0.556,0.179c-0.155,0.037 -0.315,0.068 -0.48,0.091c-0.156,0.023 -0.316,0.04 -0.479,0.054c-0.227,0.017 -0.459,0.029 -0.693,0.035c-0.514,0.015 -1.041,0.009 -1.553,0.024c-0.231,0.007 -0.459,0.017 -0.68,0.035l0.068,7.875c0.223,-0.018 0.45,-0.03 0.681,-0.035c0.512,-0.015 1.039,-0.011 1.553,-0.025c0.235,-0.006 0.466,-0.017 0.694,-0.035c0.162,-0.014 0.322,-0.032 0.479,-0.053c0.164,-0.024 0.324,-0.055 0.479,-0.092c0.194,-0.047 0.381,-0.105 0.556,-0.18c0.047,-0.02 0.092,-0.042 0.135,-0.064c0.013,-0.007 0.025,-0.014 0.037,-0.02c0.03,-0.016 0.06,-0.033 0.089,-0.05c0.003,-0.002 0.006,-0.003 0.009,-0.005c0.009,-0.005 0.017,-0.011 0.025,-0.016c0.032,-0.019 0.062,-0.039 0.092,-0.059c0.014,-0.009 0.027,-0.019 0.041,-0.029c0.025,-0.019 0.051,-0.038 0.075,-0.057c0.008,-0.006 0.016,-0.012 0.023,-0.018c0.006,-0.005 0.011,-0.011 0.017,-0.015c0.015,-0.013 0.029,-0.024 0.042,-0.037c0.015,-0.014 0.03,-0.027 0.045,-0.042c0.013,-0.012 0.026,-0.025 0.038,-0.038c0.007,-0.009 0.015,-0.016 0.023,-0.024c0.003,-0.003 0.006,-0.007 0.009,-0.011c0.039,-0.043 0.075,-0.088 0.107,-0.133c0.002,-0.003 0.005,-0.006 0.007,-0.009c0.003,-0.004 0.005,-0.009 0.009,-0.014c0.032,-0.047 0.061,-0.095 0.087,-0.145l0,0c0,-0.001 0.001,-0.002 0.001,-0.002c0.026,-0.052 0.049,-0.105 0.067,-0.159c0.002,-0.004 0.004,-0.009 0.005,-0.013c0.001,-0.002 0.002,-0.005 0.003,-0.009c0.005,-0.016 0.009,-0.031 0.014,-0.046c0.004,-0.018 0.01,-0.035 0.014,-0.053c0.003,-0.016 0.007,-0.031 0.01,-0.047c0.003,-0.013 0.006,-0.026 0.008,-0.039c0.001,-0.005 0.001,-0.009 0.002,-0.014c0.003,-0.021 0.006,-0.042 0.008,-0.064c0.002,-0.015 0.004,-0.03 0.005,-0.044c0.001,-0.024 0.002,-0.048 0.003,-0.071c0,-0.012 0.002,-0.023 0.002,-0.034c0,-0.005 0,-0.01 0,-0.016l-0.07,-7.873Z" style="fill:#7c294b;fill-rule:nonzero;"/><path d="M99.678,105.558c-0.002,0 -0.005,0 -0.008,0.002c-0.146,0.035 -0.9,0.289 -1.429,0.525c-0.049,0.021 -0.096,0.043 -0.141,0.065l0.069,7.874c0.045,-0.022 0.092,-0.043 0.141,-0.065c0.529,-0.236 1.283,-0.489 1.429,-0.525c0.003,-0.001 0.006,-0.001 0.008,-0.002c0.124,-0.028 0.251,-0.05 0.381,-0.069c0.155,-0.022 0.314,-0.04 0.475,-0.052l-0.068,-7.875c-0.163,0.013 -0.321,0.03 -0.476,0.053c-0.13,0.019 -0.257,0.042 -0.381,0.069Z" style="fill:#7c294b;fill-rule:nonzero;"/><path d="M109.095,121.397l-0.069,-7.875l-14.022,5.901l0.057,6.552c-1.628,0.196 -3.091,0.043 -3.881,-0.49c-0.525,-0.355 -0.605,-0.808 -0.618,-1.281c-0.002,-0.13 -0.003,-0.26 -0.004,-0.39c-0.003,-0.387 -0.03,-0.771 -0.286,-1.108c-0.055,-0.071 -0.619,-0.549 -1.094,-0.832l-14.007,5.893l0.069,7.876l14.007,-5.895c0.476,0.282 1.039,0.761 1.094,0.832c0.229,0.302 0.274,0.641 0.284,0.988c0.001,0.13 0.002,0.26 0.003,0.39c0.005,0.514 0.051,1.017 0.621,1.401c1.353,0.913 4.679,0.713 7.431,-0.445c0.078,-0.033 0.154,-0.066 0.229,-0.1c1.831,-0.816 2.885,-1.861 2.877,-2.717c-0.017,-1.869 -0.033,-3.735 -0.05,-5.603l7.359,-3.097Z" style="fill:#a1426f;fill-rule:nonzero;"/><path d="M104.976,105.018l0.069,7.873c-1.465,0.617 -3.669,0.183 -5.298,0.541c-0.123,0.028 -0.897,0.285 -1.437,0.527c-0.049,0.022 -0.096,0.043 -0.141,0.065l-0.069,-7.874c0.045,-0.022 0.092,-0.044 0.141,-0.065c0.54,-0.241 1.314,-0.5 1.437,-0.527c1.629,-0.358 3.833,0.076 5.298,-0.54Z" style="fill:#7c294b;fill-rule:nonzero;"/><path d="M75.171,127.767l-26.41,-17.82l0.069,7.874l26.41,17.822l-0.069,-7.876Z" style="fill:#7c294b;fill-rule:nonzero;"/><path d="M101.147,121.291c-0.84,-0.567 -2.289,-0.531 -3.468,-0.748c-0.611,-0.113 -1.239,-0.279 -1.731,-0.505c-0.106,-0.049 -0.635,-0.354 -0.944,-0.615l14.022,-5.901l-10.926,-7.372c0.045,-0.022 0.092,-0.044 0.141,-0.065c0.54,-0.241 1.314,-0.5 1.437,-0.527c1.629,-0.358 3.833,0.076 5.298,-0.54c1.668,-0.744 1.317,-2.487 -0.807,-3.919c-2.147,-1.449 -5.292,-2.032 -7.077,-1.28c-1.023,0.456 -0.982,1.21 -1.398,1.828c-0.219,0.327 -0.541,0.662 -0.969,0.927c-0.052,0.031 -0.249,0.13 -0.498,0.241c-0.206,0.092 -0.448,0.191 -0.672,0.268l-10.939,-7.382l-33.855,14.246l26.41,17.82l14.007,-5.893c0.475,0.283 1.039,0.761 1.094,0.832c0.655,0.862 -0.19,2.037 0.908,2.779c1.353,0.912 4.679,0.712 7.431,-0.446c0.078,-0.031 0.154,-0.065 0.229,-0.098c2.585,-1.154 3.621,-2.763 2.307,-3.65Z" style="fill:#cc4e7e;fill-rule:nonzero;"/><path d="M171.284,151.474c0,4.677 8.518,8.466 19.025,8.466c10.508,0 19.026,-3.789 19.026,-8.466c0,-4.674 -8.518,-8.465 -19.026,-8.465c-10.507,0 -19.025,3.791 -19.025,8.465Z" style="fill:#9eacd4;fill-rule:nonzero;"/><path d="M183.9,149.576c-1.344,1.354 -3.559,2.075 -3.559,2.077c-1.868,0.474 -2.966,-0.768 -2.966,-0.768c-0.401,-0.561 0.086,-0.869 0.086,-0.869c3.938,-2.995 5.117,-3.844 5.117,-3.844l3.615,0c0.177,1.455 0.079,2.04 0.079,2.04c-0.314,0.428 -0.977,1.033 -1.983,1.202c-0.075,0.013 -0.214,-0.097 -0.284,-0.067l-0.105,0.229Z" style="fill:#16181c;fill-rule:nonzero;"/><path d="M177.444,150.028c0.016,0.084 0.038,0.167 0.076,0.248c0.306,0.654 1.156,0.925 1.83,0.915c0.809,-0.011 1.545,-0.407 2.251,-0.764c0.681,-0.344 1.277,-0.78 1.864,-1.265c0.408,-0.337 0.928,-0.496 1.41,-0.705c0.543,-0.237 0.952,-0.605 1.422,-0.958c0.002,0.39 -0.025,0.713 -0.025,0.713c-0.314,0.428 -0.977,1.033 -1.983,1.202c-0.075,0.013 -0.214,-0.097 -0.284,-0.067l-0.105,0.229c-1.344,1.354 -3.559,2.075 -3.559,2.077c-1.868,0.474 -2.966,-0.768 -2.966,-0.768c-0.357,-0.499 -0.012,-0.797 0.069,-0.857Z" style="fill-rule:nonzero;"/><path d="M186.592,116.853c-4.021,4.439 -5.614,-0.256 -5.614,-0.256l-0.498,-27.283c-0.053,0.406 -0.186,-2.751 4.89,-2.068c5.06,0.682 6.342,2.655 6.342,2.655c0,0 -2.785,18.845 -5.12,26.952Z" style="fill:#e69375;fill-rule:nonzero;"/><path d="M180.953,116.252c0,0 2.039,28.733 2.206,29.741c0,0 2.48,0.549 2.49,-0.023c0.028,-1.376 2.86,-18.19 2.896,-20.353c0.093,-5.475 -1.318,-6.51 -2.726,-10.199c0,0 -4.876,-3.605 -4.866,0.834Z" style="fill:#e69375;fill-rule:nonzero;"/><path d="M187.802,117.886c2.336,-8.107 3.91,-27.985 3.91,-27.985c0,0 -1.282,-1.973 -6.342,-2.655c-5.076,-0.683 -4.943,2.474 -4.89,2.068c0,0 -1.538,14.795 -0.13,28.241c0,0 4.336,2.302 7.452,0.331Z" style="fill:#104473;fill-rule:nonzero;"/><path d="M195.474,74.679c0.717,2.553 3.677,12.296 3.677,12.296c-10.596,12.676 -18.579,1.584 -18.684,0.428c-0.127,-1.384 1.418,-6.669 1.698,-12.369c0,0 2.89,-4.448 13.309,-0.355Z" style="fill:#f7a583;fill-rule:nonzero;"/><path d="M180.528,90.576c-0.502,-3.415 0.539,-6.858 1.075,-10.309l15.522,0c0.993,3.309 2.026,6.708 2.026,6.708c0,0 0.663,7.827 -5.984,8.764c0,0 -11.584,2.008 -12.639,-5.163Z" style="fill:#104473;fill-rule:nonzero;"/><path d="M198.186,117.451c-3.319,4.985 -5.59,0.578 -5.59,0.578l-5.384,-26.579c0.009,0.41 0.162,-3.462 5.283,-3.537c5.107,-0.076 6.665,1.685 6.665,1.685c0,0 0.134,19.488 -0.974,27.853Z" style="fill:#f7a583;fill-rule:nonzero;"/><path d="M192.519,117.691c0,0 5.33,30.278 5.644,31.25c0,0 2.534,0.175 2.46,-0.391c-0.176,-1.366 0.281,-20.458 -0.003,-22.602c-0.72,-5.429 -1.474,-6.362 -3.412,-9.802c0,0 -5.356,-2.843 -4.689,1.545Z" style="fill:#f7a583;fill-rule:nonzero;"/><path d="M197.921,148.356l-1.499,4.573c0,0 0.31,4.093 3.592,1.556l0.978,-0.947c0.499,-0.423 0.352,-1.005 0.352,-1.005l-0.291,-1.752l-0.348,-2.425c0,0 -2.057,-1.396 -2.784,0Z" style="fill:#16181c;fill-rule:nonzero;"/><path d="M200.014,153.901l0.978,-0.947c0.194,-0.164 0.29,-0.354 0.335,-0.523l0.017,0.102c0,0 0.147,0.582 -0.352,1.005l-0.978,0.947c-3.282,2.537 -3.592,-1.556 -3.592,-1.556l0.058,-0.179c0.185,0.966 0.908,3.18 3.534,1.151Z" style="fill-rule:nonzero;"/><path d="M191.939,118.762c-1.87,-5.487 -5.399,-28.186 -5.399,-28.186c0.008,0.409 1.056,-5.421 6.178,-5.496c5.106,-0.076 6.433,1.895 6.433,1.895c0,0 1.599,22.215 0.49,30.58c0,0 -3.597,4.154 -7.702,1.207Z" style="fill:#0e5099;fill-rule:nonzero;"/><path d="M182.952,57.219c0,0 -8.671,10.197 -12.982,13.575c0,0 -2.898,-1.071 -2.808,-3.04c0,0 6.347,-9.39 10.333,-14.946c0,0 5.389,-1.551 5.457,4.411Z" style="fill:#e69375;fill-rule:nonzero;"/><path d="M168.417,66.902c0,0 -9.468,5.512 -13.389,7.355c0,0 -0.704,1.101 0.432,1.205c1.897,0.174 15.091,-4.294 15.413,-5.331c1.503,-4.836 -2.456,-3.229 -2.456,-3.229Z" style="fill:#e69375;fill-rule:nonzero;"/><path d="M177.067,56.08c0.681,1.821 2.704,2.758 4.516,2.091c1.813,-0.666 2.732,-2.682 2.05,-4.504c-0.682,-1.821 -2.703,-2.758 -4.518,-2.091c-1.812,0.667 -2.729,2.683 -2.048,4.504Z" style="fill:#e69375;fill-rule:nonzero;"/><path d="M181.396,51.382c0,0 -3.091,-1.084 -5.215,1.95l-7.564,10.97c0,0 1.56,3.492 5.24,5.399c0,0 13.54,-12.469 7.539,-18.319Z" style="fill:#872952;fill-rule:nonzero;"/><path d="M190.157,47.699c0,0 0.625,-1.201 2.001,-3.505c0,0 2.93,-3.009 1.29,-6.792c0,0 -0.902,-3.162 -6.433,-2.703c0,0 -0.53,8.705 3.142,13Z" style="fill:#f8a07d;fill-rule:nonzero;"/><path d="M190.376,42.77c0,0 -0.93,8.676 1.054,9.332l-7.076,-0.422c0,0 1.112,-2.621 -0.181,-4.555l6.203,-4.355Z" style="fill:#f7a583;fill-rule:nonzero;"/><path d="M184.743,50.165c0.119,-1.982 -0.131,-2.385 -0.57,-3.04l6.203,-4.355c0,0 -0.299,2.803 -0.195,5.343c-1.796,1.7 -3.28,2.1 -5.438,2.052Z" style="fill:#e1866e;fill-rule:nonzero;"/><path d="M179.364,51.365c-1.575,1.15 -1.757,3.903 -1.193,5.623c0.645,1.975 0.9,4.495 1.548,7.352c0.876,3.87 1.47,6.851 2.446,10.694c0.809,3.179 13.582,0.618 13.582,0.618l4.578,-15.645c0,0 0.79,-4.084 -2.911,-5.443c0,0 -3.897,-2.104 -6.751,-3.071c-2.52,-0.853 -3.432,-0.933 -6.018,-0.774c0,0 -3.466,0.127 -5.281,0.646Z" style="fill:#f7a583;fill-rule:nonzero;"/><path d="M181.64,35.357c-0.365,1.664 -0.779,2.534 -0.319,4.06c0.414,1.37 0.318,2.81 0.915,4.138c0.855,1.894 1.964,1.647 2.814,-0.096c0.869,-1.784 1.776,-4.194 -0.187,-5.515c-1.26,-0.849 -1.715,-2.308 -3.223,-2.587Z" style="fill:#260f02;fill-rule:nonzero;"/><path d="M182.733,48.361l-0.294,-0.98c0,0 -0.745,-3.627 -0.745,-3.628c-0.094,-0.456 -0.058,-1.054 0.058,-1.507c0.125,-0.494 0.22,-1.011 0.128,-1.548c-0.447,-2.602 0.969,-3.956 0.969,-3.956c1.622,-2.303 5.178,-2.122 5.178,-2.122c4.389,0.438 4.545,4.715 4.545,4.715c0.573,2.867 -1.799,5.112 -1.804,5.117c-0.19,0.178 -0.144,1.115 -0.211,1.378c-0.289,1.118 -1.406,1.758 -2.388,2.189c-1.079,0.472 -2.381,0.967 -3.563,1.016c-0.45,0.019 -1.704,-0.111 -1.873,-0.674Z" style="fill:#f8a07d;fill-rule:nonzero;"/><path d="M181.783,43.686c0.577,0.52 1.362,0.283 1.976,0.66c0.401,0.246 0.601,0.231 1.04,0.102c0.352,-0.103 0.634,-0.07 0.993,0.033c0.366,0.106 1.03,0.425 1.385,0.568c0.544,0.22 1.153,0.151 1.574,-0.363c0.442,-0.538 0.609,-0.649 0.817,-1.293c0.381,-1.186 1.58,-1.258 2.406,-0.592c-0.54,1.015 -1.203,1.648 -1.206,1.651c-0.19,0.178 -0.144,1.889 -0.211,2.152c-0.289,1.119 -1.406,1.759 -2.388,2.189c-1.079,0.473 -2.725,0.538 -3.909,0.587c-0.448,0.018 -1.358,-0.456 -1.527,-1.019l-0.294,-0.98c0,0 -0.745,-3.627 -0.745,-3.628c-0.014,-0.063 -0.018,-0.133 -0.026,-0.202c0.037,0.047 0.071,0.095 0.115,0.135Z" style="fill:#260f02;fill-rule:nonzero;"/><path d="M181.703,36.904c0.995,0.001 0.982,0.832 1.744,1.295c1.632,0.993 4.164,-0.462 5.478,1.147c0.119,0.145 0.23,0.314 0.334,0.51c0.387,0.725 0.504,1.601 0.627,2.405c0.037,0.237 -0.139,0.844 0.077,1.025c0.123,0.105 0.337,0.074 0.565,0.002c0.044,0.363 -0.249,0.643 -0.374,0.976c-0.126,0.336 -0.323,0.62 -0.145,0.959c0.459,0.871 0.107,0.727 0.148,2.476c0.284,-0.415 0.982,-0.919 1.202,-1.111c0.639,-0.556 1.241,-1.163 1.699,-1.88c0.448,-0.702 0.741,-1.49 1.031,-2.266c0.475,-1.272 0.75,-2.649 0.368,-3.983c0,0 -0.3,-3.102 -2.894,-3.434c0,0 0.33,-1.997 -4.412,-2.526c0,0 -3.744,0.059 -3.949,-1.233c0,0 -0.758,0.646 -0.57,1.645c0,0 -1.539,0.469 -2.232,-1.292c0,0 -1.282,4.639 1.303,5.285Z" style="fill:#260f02;fill-rule:nonzero;"/><path d="M190.09,45.183c0.117,0.151 0.279,0.257 0.499,0.296c0.59,0.109 1.181,-0.441 1.32,-1.228c0.138,-0.784 -0.225,-1.509 -0.815,-1.617c-0.281,-0.051 -0.561,0.046 -0.792,0.245c-0.338,0.291 -0.449,0.931 -0.452,1.387c-0.003,0.365 0.066,0.692 0.24,0.917Z" style="fill:#f8a07d;fill-rule:nonzero;"/><path d="M190.726,43.332c0.092,-0.412 0.888,0.088 0.732,0.307c-0.092,0.127 -0.25,0.208 -0.379,0.288c-0.174,0.112 -0.266,0.22 -0.313,0.425c-0.007,0.024 -0.019,0.096 0.002,0.115c0.101,0.089 0.507,-0.275 0.597,-0.351c0.174,-0.15 0.23,-0.437 0.181,-0.655c-0.052,-0.232 -0.186,-0.354 -0.426,-0.369c-0.19,-0.011 -0.384,-0.022 -0.401,0.216c0,0.005 0.003,0.044 0.007,0.024Z" style="fill:#e98b70;fill-rule:nonzero;"/><path d="M190.945,43.797c-0.078,-0.099 -0.17,-0.036 -0.268,0.019c-0.091,0.05 -0.148,0.131 -0.181,0.227c-0.075,0.211 -0.08,0.504 0.021,0.709c0.082,0.164 0.24,0.278 0.424,0.296c0.254,0.022 0.357,-0.193 0.393,-0.406c0.009,-0.058 0.031,-0.194 -0.021,-0.236c-0.057,-0.045 -0.111,0.044 -0.156,0.079c-0.063,0.048 -0.149,0.058 -0.225,0.055c-0.147,-0.004 -0.28,-0.095 -0.358,-0.214c-0.014,-0.021 -0.025,-0.045 -0.031,-0.069c-0.017,0.14 -0.013,0.173 0.012,0.097c0.016,-0.035 0.035,-0.065 0.06,-0.094c0.07,-0.09 0.178,-0.145 0.254,-0.23c0.036,-0.038 0.114,-0.183 0.076,-0.233Z" style="fill:#e98b70;fill-rule:nonzero;"/><path d="M183.995,43.47l1.197,0.462c0,0 -1.614,0.101 -1.676,-0.368c0,0 0.244,-0.916 0.508,-1.782c0,0 -0.207,1.619 -0.029,1.688Z" style="fill:#e98b70;fill-rule:nonzero;"/><path d="M186.082,41.782c0,0.253 0.14,0.457 0.312,0.457c0.171,0 0.31,-0.204 0.31,-0.457c0,-0.252 -0.139,-0.457 -0.31,-0.457c-0.172,0 -0.312,0.205 -0.312,0.457Z" style="fill:#260f02;fill-rule:nonzero;"/><path d="M182.632,41.399c0,0.253 0.14,0.457 0.312,0.457c0.171,0 0.31,-0.204 0.31,-0.457c0,-0.253 -0.139,-0.457 -0.31,-0.457c-0.172,0 -0.312,0.204 -0.312,0.457Z" style="fill:#260f02;fill-rule:nonzero;"/><path d="M185.759,40.895c-0.111,0.023 -0.139,-0.127 -0.139,-0.127c-0.035,-0.146 0.008,-0.268 0.008,-0.268c0.045,-0.103 0.132,-0.136 0.132,-0.136c0.289,-0.04 0.847,0.032 1.322,0.173c0.262,0.079 0.687,0.273 0.715,0.516c0.008,0.072 0.015,0.196 -0.067,0.218c0,0 -0.903,-0.279 -1.971,-0.376Z" style="fill:#260f02;fill-rule:nonzero;"/><path d="M181.836,40.502c0.313,0.005 0.867,0.034 1.543,0.161c0.101,0.053 0.167,-0.084 0.168,-0.084c0.073,-0.13 0.066,-0.26 0.066,-0.26c-0.016,-0.111 -0.092,-0.166 -0.092,-0.166c-0.265,-0.118 -0.648,-0.186 -1.142,-0.179c-0.148,0.002 -0.405,0.022 -0.575,0.078c0,0 -0.033,0.091 0.032,0.45Z" style="fill:#260f02;fill-rule:nonzero;"/><path d="M183.327,44.931c-0.097,-0.001 -0.15,0.044 -0.113,0.115c0,0 0.43,0.809 1.184,0.9c0.753,0.091 1.369,-0.591 1.369,-0.591c0.06,-0.067 0.008,-0.133 -0.114,-0.149c0,0 -1.301,-0.166 -2.326,-0.275Z" style="fill:#fff;fill-rule:nonzero;"/><path d="M198.079,83.876c0,0 2.718,4.388 0,9.305c-2.718,4.918 -11.018,3.125 -11.042,-3.244c-0.025,-6.292 5.701,-8.698 11.042,-6.061Z" style="fill:#0e5099;fill-rule:nonzero;"/><path d="M184.645,50.719c0,0 -3.466,0.127 -5.281,0.646c-1.575,1.15 -1.757,3.903 -1.193,5.623c0.645,1.975 0.9,4.495 1.548,7.352c0.876,3.87 -0.229,6.699 0.748,10.543c0.808,3.179 17.711,0 17.711,0l2.147,-14.876c0,0 0.79,-4.084 -2.911,-5.443c0,0 -3.72,-2.042 -6.573,-3.009c0,0 0.444,3.009 -4.462,2.178c0,0 -2.997,-0.723 -1.734,-3.014Z" style="fill:#872952;fill-rule:nonzero;"/><path d="M198.178,74.883c0.718,2.553 1.285,11.161 1.285,11.161c-1.943,8.059 -19.82,2.261 -19.926,1.105c-0.126,-1.384 0.421,-7.97 0.702,-13.669c0,0 7.519,-2.69 17.939,1.403Z" style="fill:#872952;fill-rule:nonzero;"/><path d="M192.909,60.388c1.166,2.373 5.496,14.346 6.887,16.24c0.371,0.503 3.94,2.802 4.742,-0.332c-1.966,-12.429 -4.942,-19.519 -4.942,-19.519c0,0 -3.475,-2.898 -6.25,-0.22c0,0 -1.26,2.188 -0.437,3.831Z" style="fill:#f7a583;fill-rule:nonzero;"/><path d="M192.417,58.267c-0.384,2.278 1.15,4.435 3.427,4.819c2.277,0.384 4.436,-1.15 4.819,-3.427c0.384,-2.278 -1.15,-4.435 -3.427,-4.819c-2.278,-0.385 -4.435,1.15 -4.819,3.427Z" style="fill:#f7a583;fill-rule:nonzero;"/><path d="M196.541,54.107c0,0 3.593,1.348 4.444,4.264l2.218,7.937c0,0 -2.906,4.227 -7.239,4.086l-4.279,-9.507c0,0 -2.88,-5.339 4.856,-6.78Z" style="fill:#872952;fill-rule:nonzero;"/><path d="M150.535,76.813l1.107,-0.031c0,0 -2.019,0.519 -2.669,-0.137c0,0 -0.167,-0.104 0.092,-0.338c0,0 1.786,-0.061 2.57,-0.287c0,0 -1.766,0.427 -3.024,0.3c0,0 -0.493,-0.323 0.038,-0.616c-0.401,-0.156 -0.058,-0.42 -0.058,-0.42c0,0 0.36,-0.201 1.202,-0.464c0,0 1.294,-0.413 2.756,-1.074c0,0 -1.165,-0.763 -0.729,-1.377l1.797,0.948l1.626,1.045l0.217,1.1l-1.692,1.176c0,0 -1.644,0.661 -2.575,0.693c0,0 -2.671,-0.095 -0.658,-0.518Z" style="fill:#e69375;fill-rule:nonzero;"/><path d="M191.939,118.762l4.649,28.973c0,0 1.54,1.485 5.115,0l0.593,-14.156c0,0 1.049,-9.353 -2.655,-16.024c0,0 -7.296,-5.889 -7.702,1.207Z" style="fill:#0e5099;fill-rule:nonzero;"/><path d="M187.802,117.886c0,0 1.98,2.864 0.206,13.61l-1.815,14.676c0,0 -2.087,1.251 -4.437,0.058l-1.462,-29.238c0,0 1.312,-4.963 7.508,0.894Z" style="fill:#104473;fill-rule:nonzero;"/><path d="M153.879,82.517c-0.003,-0.352 -0.186,-0.672 -0.571,-0.932c-0.061,-0.04 -0.125,-0.077 -0.192,-0.112c-0.021,-0.011 -0.043,-0.021 -0.064,-0.032c-0.049,-0.023 -0.098,-0.045 -0.148,-0.066c-0.014,-0.006 -0.025,-0.012 -0.037,-0.017c-0.011,-0.004 -0.023,-0.007 -0.034,-0.011c-0.081,-0.031 -0.164,-0.06 -0.25,-0.085c-0.001,-0.001 -0.002,-0.001 -0.003,-0.002c-0.002,0 -0.003,0 -0.003,0c-0.087,-0.026 -0.177,-0.048 -0.269,-0.068c-0.01,-0.003 -0.02,-0.007 -0.03,-0.009c-0.013,-0.002 -0.026,-0.004 -0.039,-0.007c-0.107,-0.024 -0.218,-0.044 -0.33,-0.063c-0.003,0 -0.005,-0.001 -0.009,-0.002c-0.009,-0.001 -0.019,-0.003 -0.028,-0.004c-0.116,-0.019 -0.233,-0.036 -0.351,-0.051c-0.013,-0.002 -0.025,-0.004 -0.038,-0.005c-0.125,-0.017 -0.25,-0.031 -0.376,-0.045c-0.007,-0.002 -0.013,-0.002 -0.021,-0.003c-0.102,-0.012 -0.204,-0.023 -0.305,-0.035c-0.12,-0.014 -0.239,-0.028 -0.358,-0.043c-0.02,-0.003 -0.042,-0.005 -0.064,-0.008c-0.116,-0.016 -0.23,-0.032 -0.343,-0.05c-0.059,-0.01 -0.118,-0.02 -0.176,-0.03c-0.118,-0.022 -0.237,-0.047 -0.356,-0.072c-0.021,-0.005 -0.043,-0.01 -0.064,-0.014c-0.086,-0.02 -0.172,-0.04 -0.258,-0.062c-0.002,0 -0.004,-0.001 -0.006,-0.002c-0.087,-0.022 -0.172,-0.045 -0.257,-0.069c-0.027,-0.008 -0.053,-0.017 -0.08,-0.025c-0.059,-0.017 -0.117,-0.036 -0.174,-0.055c-0.028,-0.009 -0.056,-0.018 -0.084,-0.028c-0.059,-0.02 -0.116,-0.042 -0.174,-0.063c-0.021,-0.009 -0.044,-0.016 -0.064,-0.025c-0.074,-0.029 -0.145,-0.058 -0.213,-0.089c-0.107,-0.05 -0.635,-0.355 -0.944,-0.616l0.069,7.874c0.309,0.263 0.838,0.566 0.944,0.616c0.068,0.031 0.139,0.06 0.212,0.09c0.005,0.001 0.01,0.004 0.015,0.006c0.016,0.006 0.034,0.012 0.05,0.018c0.058,0.022 0.115,0.043 0.175,0.064c0.027,0.009 0.054,0.018 0.082,0.027c0.058,0.02 0.118,0.038 0.178,0.057c0.017,0.005 0.033,0.009 0.05,0.015c0.009,0.003 0.017,0.004 0.026,0.007c0.085,0.025 0.172,0.049 0.259,0.071c0,0 0,0 0.001,0c0.087,0.022 0.175,0.042 0.264,0.063c0.008,0.002 0.016,0.004 0.025,0.006c0.012,0.002 0.024,0.005 0.035,0.007c0.12,0.026 0.24,0.051 0.358,0.073c0.049,0.009 0.097,0.017 0.147,0.026c0.009,0.002 0.019,0.002 0.03,0.004c0.111,0.018 0.226,0.034 0.341,0.05c0.024,0.003 0.046,0.006 0.069,0.009c0.116,0.014 0.233,0.028 0.35,0.042c0.001,0 0.002,0 0.005,0.001c0.076,0.008 0.153,0.017 0.23,0.026c0.032,0.003 0.062,0.007 0.094,0.01c0.128,0.015 0.254,0.03 0.381,0.046c0.009,0.001 0.019,0.004 0.029,0.004c0.12,0.016 0.239,0.033 0.356,0.053c0.013,0.001 0.025,0.003 0.037,0.005c0.112,0.019 0.223,0.04 0.33,0.063c0.024,0.005 0.047,0.01 0.07,0.015c0.092,0.021 0.182,0.044 0.269,0.069c0.089,0.027 0.173,0.056 0.255,0.087c0.023,0.009 0.047,0.019 0.071,0.028c0.051,0.02 0.099,0.043 0.148,0.066c0.021,0.011 0.043,0.021 0.063,0.031c0.068,0.035 0.132,0.073 0.193,0.114c0.385,0.259 0.568,0.579 0.571,0.931l-0.069,-7.874Z" style="fill:#394572;fill-rule:nonzero;"/><path d="M142.47,99.857c0.026,-0.006 0.053,-0.012 0.08,-0.017c0.038,-0.008 0.074,-0.017 0.11,-0.025c0.031,-0.005 0.061,-0.01 0.092,-0.015c0.026,-0.005 0.052,-0.01 0.076,-0.013l0.059,6.598l10.927,7.373l-0.07,-7.874l-9.051,-6.108c0.132,0.016 0.266,0.035 0.399,0.057c0.032,0.004 0.062,0.01 0.093,0.015c0.049,0.009 0.099,0.018 0.15,0.028c0.035,0.006 0.071,0.014 0.107,0.021c0.049,0.01 0.096,0.019 0.144,0.03c0.034,0.007 0.068,0.015 0.1,0.023c0.078,0.018 0.156,0.036 0.234,0.056c0.022,0.005 0.043,0.01 0.065,0.016c0.097,0.025 0.194,0.052 0.291,0.08c0.019,0.006 0.038,0.011 0.056,0.017c0.134,0.04 0.267,0.082 0.4,0.127c0.006,0.002 0.013,0.005 0.019,0.007c0.133,0.046 0.264,0.094 0.395,0.145c0.011,0.004 0.022,0.008 0.032,0.013c0.15,0.058 0.299,0.122 0.446,0.188c0.007,0.003 0.014,0.006 0.022,0.009c0.149,0.067 0.295,0.138 0.439,0.213c0.005,0.003 0.011,0.005 0.015,0.007c0.147,0.076 0.291,0.156 0.431,0.238c0.002,0.002 0.005,0.003 0.006,0.005c0.144,0.084 0.283,0.172 0.419,0.263c1.206,0.814 1.84,1.728 1.847,2.507c-0.022,-2.625 -0.046,-5.25 -0.069,-7.875c-0.007,-0.778 -0.642,-1.691 -1.847,-2.506c-0.136,-0.091 -0.275,-0.179 -0.419,-0.263c-0.002,-0.002 -0.004,-0.003 -0.006,-0.005c-0.14,-0.083 -0.285,-0.162 -0.431,-0.237c-0.005,-0.003 -0.01,-0.006 -0.016,-0.008c-0.143,-0.074 -0.29,-0.146 -0.438,-0.213c-0.008,-0.003 -0.015,-0.007 -0.023,-0.009c-0.147,-0.067 -0.295,-0.13 -0.445,-0.189c-0.003,-0.001 -0.006,-0.003 -0.009,-0.003c-0.007,-0.003 -0.015,-0.006 -0.023,-0.009c-0.132,-0.051 -0.264,-0.101 -0.398,-0.146c-0.005,-0.002 -0.011,-0.004 -0.015,-0.006c-0.135,-0.046 -0.269,-0.088 -0.404,-0.128c-0.011,-0.003 -0.02,-0.007 -0.031,-0.01c-0.007,-0.001 -0.013,-0.003 -0.021,-0.006c-0.097,-0.028 -0.195,-0.055 -0.293,-0.081c-0.021,-0.005 -0.04,-0.009 -0.06,-0.014c-0.081,-0.021 -0.161,-0.04 -0.24,-0.058c-0.015,-0.004 -0.03,-0.007 -0.045,-0.011c-0.017,-0.003 -0.033,-0.007 -0.05,-0.01c-0.049,-0.011 -0.099,-0.021 -0.15,-0.032c-0.034,-0.007 -0.069,-0.014 -0.104,-0.021c-0.05,-0.009 -0.101,-0.018 -0.151,-0.026c-0.024,-0.005 -0.049,-0.01 -0.073,-0.014c-0.007,-0.001 -0.012,-0.002 -0.019,-0.002c-0.136,-0.023 -0.27,-0.042 -0.403,-0.057c-0.011,-0.002 -0.022,-0.003 -0.032,-0.005c-0.008,-0.001 -0.016,-0.001 -0.024,-0.002c-0.116,-0.013 -0.233,-0.024 -0.347,-0.032c-0.009,-0.001 -0.019,-0.002 -0.028,-0.003c-0.014,0 -0.026,0 -0.038,-0.001c-0.214,-0.013 -0.422,-0.018 -0.626,-0.012c-0.012,0 -0.024,-0.001 -0.037,0c-0.01,0 -0.02,0 -0.031,0.001c-0.099,0.003 -0.197,0.008 -0.292,0.016c-0.002,0 -0.004,0 -0.007,0c-0.005,0 -0.011,0.002 -0.017,0.003c-0.1,0.008 -0.197,0.019 -0.293,0.033c-0.011,0.001 -0.022,0.002 -0.032,0.003c-0.007,0.001 -0.015,0.003 -0.021,0.004c-0.04,0.006 -0.08,0.013 -0.118,0.019c-0.028,0.006 -0.056,0.01 -0.084,0.016c-0.04,0.007 -0.08,0.017 -0.119,0.025c-0.021,0.005 -0.043,0.008 -0.064,0.014c-0.003,0.001 -0.005,0.001 -0.009,0.002c-0.084,0.021 -0.168,0.045 -0.248,0.069c-0.018,0.007 -0.036,0.013 -0.055,0.019c-0.081,0.027 -0.16,0.055 -0.236,0.087c-0.061,0.027 -0.117,0.055 -0.17,0.083c-0.017,0.009 -0.032,0.019 -0.048,0.027c-0.019,0.011 -0.039,0.021 -0.057,0.032c-0.016,0.01 -0.03,0.019 -0.046,0.029c-0.019,0.013 -0.039,0.025 -0.057,0.038c-0.03,0.02 -0.058,0.04 -0.085,0.062c-0.016,0.012 -0.034,0.025 -0.049,0.036c-0.005,0.005 -0.011,0.009 -0.017,0.013c-0.031,0.028 -0.063,0.055 -0.091,0.082c-0.004,0.004 -0.007,0.008 -0.01,0.011c-0.024,0.022 -0.047,0.046 -0.068,0.069c-0.007,0.007 -0.013,0.014 -0.018,0.021c-0.01,0.012 -0.021,0.024 -0.031,0.036c-0.02,0.024 -0.04,0.048 -0.058,0.074c-0.009,0.011 -0.019,0.022 -0.026,0.034c-0.005,0.006 -0.009,0.013 -0.014,0.019c-0.01,0.013 -0.017,0.026 -0.025,0.039c-0.017,0.024 -0.033,0.048 -0.047,0.073c-0.012,0.019 -0.022,0.037 -0.033,0.056c-0.014,0.024 -0.027,0.049 -0.04,0.072c-0.004,0.008 -0.009,0.016 -0.013,0.025c-0.005,0.009 -0.009,0.019 -0.013,0.028c-0.021,0.042 -0.041,0.085 -0.061,0.127c-0.004,0.009 -0.008,0.018 -0.012,0.028c-0.025,0.056 -0.05,0.113 -0.075,0.169c-0.018,0.044 -0.036,0.087 -0.055,0.13c-0.008,0.017 -0.015,0.033 -0.023,0.05c-0.022,0.051 -0.047,0.103 -0.073,0.154c-0.014,0.027 -0.028,0.054 -0.043,0.08c-0.007,0.014 -0.014,0.026 -0.02,0.038c-0.023,0.039 -0.047,0.078 -0.072,0.116c-0.017,0.023 -0.033,0.047 -0.05,0.071c-0.025,0.035 -0.052,0.069 -0.08,0.105c-0.011,0.015 -0.022,0.029 -0.035,0.044c-0.036,0.045 -0.074,0.089 -0.114,0.134c-0.003,0.002 -0.005,0.007 -0.009,0.011c-0.043,0.045 -0.088,0.09 -0.135,0.136c-0.013,0.013 -0.027,0.026 -0.041,0.039c-0.035,0.032 -0.07,0.063 -0.106,0.094c-0.018,0.016 -0.036,0.031 -0.056,0.046c-0.036,0.03 -0.074,0.059 -0.113,0.087c-0.018,0.014 -0.035,0.027 -0.053,0.041c-0.057,0.04 -0.116,0.08 -0.177,0.118c-0.006,0.003 -0.013,0.006 -0.02,0.011c-0.003,0.002 -0.005,0.002 -0.008,0.005c-0.007,0.003 -0.016,0.008 -0.025,0.013c-0.005,0.002 -0.009,0.004 -0.014,0.008c-0.009,0.004 -0.02,0.009 -0.03,0.014c-0.007,0.004 -0.014,0.007 -0.021,0.011c-0.009,0.005 -0.021,0.01 -0.031,0.016c-0.009,0.005 -0.018,0.009 -0.03,0.014c-0.009,0.005 -0.02,0.01 -0.031,0.015c-0.013,0.007 -0.024,0.013 -0.038,0.019c-0.011,0.005 -0.023,0.012 -0.036,0.017c-0.013,0.007 -0.026,0.012 -0.04,0.019c-0.019,0.009 -0.038,0.018 -0.057,0.026c-0.009,0.004 -0.017,0.009 -0.027,0.013c-0.028,0.013 -0.059,0.027 -0.09,0.04c-0.206,0.092 -0.447,0.192 -0.672,0.268l-10.94,-7.382l0.069,7.875l10.94,7.381c0.224,-0.076 0.466,-0.176 0.673,-0.267c0.059,-0.027 0.116,-0.053 0.169,-0.077c0.001,-0.001 0.002,-0.001 0.002,-0.003c0.025,-0.01 0.049,-0.021 0.072,-0.032c0.002,-0.002 0.004,-0.003 0.005,-0.003c0.018,-0.009 0.034,-0.016 0.05,-0.024c0.007,-0.004 0.013,-0.007 0.02,-0.011c0.014,-0.006 0.025,-0.011 0.038,-0.018c0.007,-0.003 0.015,-0.008 0.022,-0.011c0.01,-0.005 0.019,-0.01 0.028,-0.015c0.008,-0.003 0.016,-0.007 0.023,-0.011c0.008,-0.004 0.014,-0.007 0.019,-0.01c0.007,-0.004 0.015,-0.008 0.021,-0.011c0.004,-0.003 0.007,-0.005 0.012,-0.007c0.004,-0.003 0.009,-0.006 0.012,-0.007c0.002,-0.001 0.003,-0.002 0.004,-0.002c0.062,-0.038 0.121,-0.078 0.178,-0.119c0.017,-0.012 0.034,-0.025 0.051,-0.039c0.04,-0.029 0.078,-0.058 0.115,-0.089c0.009,-0.007 0.02,-0.014 0.029,-0.021c0.009,-0.008 0.017,-0.015 0.026,-0.023c0.036,-0.032 0.071,-0.063 0.105,-0.094c0.014,-0.013 0.029,-0.027 0.043,-0.04c0.046,-0.045 0.091,-0.09 0.134,-0.137c0,0 0,0 0.001,-0.001c0.004,-0.004 0.006,-0.007 0.009,-0.011c0.04,-0.044 0.078,-0.087 0.113,-0.131c0.013,-0.015 0.024,-0.031 0.037,-0.046c0.027,-0.034 0.052,-0.069 0.076,-0.103c0.007,-0.009 0.015,-0.018 0.022,-0.028c0.01,-0.014 0.02,-0.029 0.03,-0.043c0.026,-0.039 0.05,-0.078 0.072,-0.117c0.009,-0.014 0.015,-0.028 0.023,-0.042c0.013,-0.024 0.026,-0.047 0.038,-0.072c0.001,0 0.002,-0.001 0.002,-0.003c0.026,-0.051 0.051,-0.103 0.074,-0.155c0.007,-0.017 0.014,-0.033 0.022,-0.049c0.018,-0.043 0.037,-0.086 0.055,-0.129c0.025,-0.058 0.05,-0.115 0.075,-0.173c0.004,-0.008 0.008,-0.016 0.012,-0.024c0.019,-0.044 0.04,-0.086 0.061,-0.13c0.009,-0.017 0.017,-0.034 0.026,-0.05c0.013,-0.025 0.026,-0.05 0.041,-0.074c0.01,-0.02 0.02,-0.038 0.032,-0.056c0.014,-0.024 0.03,-0.049 0.047,-0.073c0.013,-0.02 0.025,-0.039 0.038,-0.058c0.01,-0.012 0.017,-0.023 0.026,-0.035c0.02,-0.024 0.039,-0.049 0.059,-0.073c0.01,-0.012 0.021,-0.024 0.031,-0.036c0.027,-0.03 0.055,-0.06 0.085,-0.089c0.004,-0.004 0.007,-0.008 0.011,-0.011c0.034,-0.033 0.071,-0.064 0.109,-0.095c0.015,-0.013 0.031,-0.025 0.047,-0.037c0.028,-0.021 0.056,-0.042 0.086,-0.062c0.019,-0.013 0.038,-0.025 0.057,-0.038c0.033,-0.02 0.067,-0.041 0.103,-0.061c0.016,-0.009 0.031,-0.017 0.048,-0.026c0.053,-0.029 0.109,-0.057 0.17,-0.084c0.076,-0.032 0.155,-0.06 0.236,-0.087c0.018,-0.006 0.037,-0.013 0.055,-0.018c0.081,-0.026 0.162,-0.049 0.248,-0.07Z" style="fill:#424888;fill-rule:nonzero;"/><path d="M187.599,91.638l0.07,7.874l-33.855,14.246l-0.07,-7.874l33.855,-14.246Z" style="fill:#5860ab;fill-rule:nonzero;"/><path d="M127.333,88.062l14.005,-5.893c0.478,0.281 1.042,0.76 1.096,0.831c0.654,0.862 -0.19,2.038 0.909,2.779c1.352,0.912 4.678,0.713 7.431,-0.445c0.077,-0.032 0.152,-0.065 0.226,-0.098c2.586,-1.153 3.623,-2.764 2.308,-3.651c-0.84,-0.566 -2.288,-0.53 -3.468,-0.748c-0.61,-0.113 -1.237,-0.28 -1.73,-0.504c-0.107,-0.05 -0.635,-0.355 -0.944,-0.616l14.022,-5.9l26.411,17.821l-33.855,14.246l-10.927,-7.373c0.043,-0.021 0.089,-0.042 0.136,-0.062c0.54,-0.241 1.319,-0.502 1.443,-0.53c1.628,-0.357 3.833,0.077 5.241,-0.515c1.724,-0.769 1.373,-2.511 -0.75,-3.944c-2.147,-1.448 -5.292,-2.032 -7.025,-1.302c-1.076,0.479 -1.034,1.233 -1.45,1.851c-0.22,0.326 -0.541,0.662 -0.969,0.926c-0.052,0.031 -0.249,0.13 -0.498,0.241c-0.206,0.092 -0.447,0.192 -0.672,0.268l-10.94,-7.382Z" style="fill:#6174b8;fill-rule:nonzero;"/><path d="M79.859,125.165c0,0 1.159,-0.752 0.046,-2.138c-2.875,-0.183 -6.255,-1.736 -6.255,-1.736c-4.226,-1.33 -10.162,-7.872 -12.864,-10.848c-3.035,-3.343 -7.63,-0.506 -5.164,3.311c4.614,7.14 16.74,11.848 24.176,11.569" style="fill:#f8a07d;fill-rule:nonzero;"/><path d="M48.396,158.379c1.767,-8.25 2.295,-27.361 2.295,-27.361c0,0 -1.415,-1.878 -6.512,-2.205c-5.11,-0.33 -4.757,2.81 -4.734,2.403c0,0 0.005,13.522 2.345,26.839c0,0 3.634,2.506 6.606,0.324Z" style="fill:#053b6b;fill-rule:nonzero;"/><path d="M39.497,132.152c-0.503,-3.414 0.538,-6.858 1.075,-10.31l15.522,0c0.993,3.309 2.025,6.708 2.025,6.708c0,0 0.664,7.827 -5.983,8.765c0,0 -11.584,2.008 -12.639,-5.163Z" style="fill:#057ea3;fill-rule:nonzero;"/><path d="M30.384,191.732c0,6.581 11.99,11.915 26.779,11.915c14.789,0 26.778,-5.334 26.778,-11.915c0,-6.58 -11.989,-11.915 -26.778,-11.915c-14.789,0 -26.779,5.335 -26.779,11.915Z" style="fill:#9eacd4;fill-rule:nonzero;"/><path d="M72.74,191.302l-0.884,-0.052c-0.302,-0.047 -0.299,0.428 -0.34,0.444c-0.925,0.365 -1.747,0.649 -2.094,0.663c0,0 -1.636,-0.212 -1.812,-0.707l0.231,-3.037c1.824,-0.152 3.726,-0.505 3.726,-0.505l4.008,-0.563c1.928,-0.201 2.279,0.497 2.279,0.497c0,0 1.18,1.762 -5.114,3.26Z" style="fill:#16181c;fill-rule:nonzero;"/><path d="M70.308,191.122c0.292,-0.136 0.726,-0.284 1.036,-0.338c1.977,-0.346 3.911,-0.542 5.556,-1.812c0.402,-0.311 0.686,-0.697 0.715,-1.158c0.182,0.12 0.239,0.228 0.239,0.228c0,0 1.18,1.762 -5.114,3.26l-0.884,-0.052c-0.302,-0.047 -0.299,0.428 -0.34,0.444c-0.925,0.365 -1.747,0.649 -2.094,0.663c0,0 -1.636,-0.212 -1.812,-0.707l0.057,-0.74c0.651,0.374 1.801,0.601 2.641,0.212Z" style="fill:#040609;fill-rule:nonzero;"/><path d="M45.969,190.55l-0.885,-0.052c-0.301,-0.046 -0.299,0.427 -0.34,0.444c-0.925,0.364 -1.746,0.649 -2.094,0.664c0,0 -1.636,-0.213 -1.81,-0.709l0.229,-3.035c1.824,-0.154 3.727,-0.505 3.727,-0.505l4.008,-0.564c1.928,-0.201 2.278,0.497 2.278,0.497c0,0 1.181,1.763 -5.113,3.26Z" style="fill:#16181c;fill-rule:nonzero;"/><path d="M43.536,190.371c0.294,-0.137 0.727,-0.284 1.036,-0.338c1.978,-0.346 3.911,-0.543 5.557,-1.814c0.402,-0.31 0.685,-0.695 0.714,-1.156c0.183,0.12 0.239,0.227 0.239,0.227c0,0 1.181,1.763 -5.113,3.26l-0.885,-0.052c-0.301,-0.046 -0.299,0.427 -0.34,0.444c-0.925,0.364 -1.746,0.649 -2.094,0.664c0,0 -1.636,-0.213 -1.81,-0.709l0.055,-0.739c0.651,0.374 1.801,0.6 2.641,0.213Z" style="fill:#040609;fill-rule:nonzero;"/><path d="M45.629,188.083c0.657,-0.783 2.811,-29.565 2.811,-29.565c0.357,-4.424 -7,-2.566 -7,-2.566c-1.071,4.405 -0.898,5.233 -1.234,10.699c-0.134,2.158 0.21,20.039 0.13,21.414c0,0 3.415,2.263 5.293,0.018Z" style="fill:#053b6b;fill-rule:nonzero;"/><path d="M51.273,125.844c0,0 4.418,7.52 1.7,12.438c-2.719,4.918 -14.173,-0.435 -13.469,-6.128c0.773,-6.246 6.43,-8.949 11.769,-6.31Z" style="fill:#2e528b;fill-rule:nonzero;"/><path d="M54.442,116.254c0.718,2.554 3.677,12.296 3.677,12.296c-8.11,7.649 -18.578,1.585 -18.684,0.429c-0.126,-1.385 1.418,-6.67 1.699,-12.369c0,0 2.888,-4.448 13.308,-0.356Z" style="fill:#f7a583;fill-rule:nonzero;"/><path d="M64.201,156.951c-0.861,-8.394 -6.84,-29.806 -6.84,-29.806c0,0 -1.748,-1.61 -6.698,-0.353c-4.963,1.261 -5.498,7.719 -5.601,7.324c0,0 5.76,13.553 13.424,25.494c0,0 3.702,1.895 5.715,-2.659Z" style="fill:#2e528b;fill-rule:nonzero;"/><path d="M71.669,187.764c-0.145,-1.013 -7.61,-31.087 -7.61,-31.087c-1.757,-3.709 -6.803,0.197 -6.803,0.197c0.018,2.692 0.09,5.938 1.828,11.131c0.686,2.051 7.032,20.624 7.474,21.928c0,0 3.75,1.189 5.111,-2.169Z" style="fill:#2e528b;fill-rule:nonzero;"/><path d="M35.289,96.763c0,0 -0.802,13.508 -0.29,18.961c0,0 0,2.479 4.364,3.721c0,0 1.588,-15.039 2.881,-21.753c0,0 -2.579,-4.98 -6.955,-0.929Z" style="fill:#e69375;fill-rule:nonzero;"/><path d="M40.163,100.252c-1.791,0.759 -3.861,-0.066 -4.624,-1.841c-0.763,-1.774 0.069,-3.827 1.861,-4.585c1.79,-0.758 3.861,0.067 4.624,1.842c0.763,1.774 -0.07,3.827 -1.861,4.584Z" style="fill:#e69375;fill-rule:nonzero;"/><path d="M38.332,92.94c0,0 -3.19,0.739 -3.361,4.438l-0.516,13.315c0,0 3.187,2.116 7.316,1.756c0,0 4.763,-17.781 -3.439,-19.509Z" style="fill:#ffd47c;fill-rule:nonzero;"/><path d="M50.378,84.487c0,0 0.028,4.755 0.444,9.492l-6.273,-1.039c0,0 0.919,-2.163 -0.374,-4.097l6.203,-4.356Z" style="fill:#f7a583;fill-rule:nonzero;"/><path d="M38.332,92.94c-1.575,1.151 -1.756,3.904 -1.194,5.624c0.646,1.975 0.903,4.495 1.549,7.351c0.876,3.87 1.47,6.851 2.447,10.695c0.809,3.178 13.582,0.617 13.582,0.617l4.579,-15.644c0,0 0.788,-4.084 -2.912,-5.443c0,0 -3.898,-2.104 -6.751,-3.071c-2.52,-0.854 -3.433,-0.933 -6.019,-0.774c0,0 -3.466,0.127 -5.281,0.645Z" style="fill:#f7a583;fill-rule:nonzero;"/><path d="M57.047,125.453c0,0 2.718,4.387 0,9.304c-2.719,4.918 -11.018,3.124 -11.042,-3.245c-0.025,-6.292 5.702,-8.698 11.042,-6.059Z" style="fill:#2e528b;fill-rule:nonzero;"/><path d="M43.613,92.295c0,0 -3.466,0.127 -5.281,0.645c-1.639,1.198 -1.61,3.551 -1.293,5.331c0.604,3.404 1.217,6.843 1.533,10.287c0.14,1.525 0.52,4.631 0.634,6.157c0.11,1.483 0.579,2.3 2.096,3.083c1.153,0.594 2.01,0.122 3.266,0.156c3.194,0.087 6.347,-0.262 9.512,-0.654c0.133,-0.016 5.073,3.316 3.448,0.864l1.767,-16.581c0,0 0.788,-4.084 -2.912,-5.443c0,0 -2.602,-1.629 -5.456,-2.596c0,0 -4.962,0.126 -7.314,-1.249Z" style="fill:#ffd47c;fill-rule:nonzero;"/><path d="M52.489,89.979l0.268,-1.033c0,0 0.634,-3.807 0.634,-3.807c0.08,-0.479 0.019,-1.101 -0.119,-1.568c-0.149,-0.509 -0.269,-1.045 -0.195,-1.607c0.364,-2.728 -1.163,-4.083 -1.163,-4.083c-1.778,-2.335 -5.476,-2.009 -5.477,-2.009c-1.918,0.291 -3.593,1.084 -4.547,2.833c-0.866,1.586 -1.337,3.521 -0.823,5.292c0.563,1.942 1.651,3.459 3.09,4.836c0.922,0.881 1.863,0.989 3.069,1.43c0.84,0.307 2.447,0.486 3.339,0.492c0.468,0.001 1.77,-0.182 1.924,-0.776Z" style="fill:#f8a07d;fill-rule:nonzero;"/><path d="M51.758,79.463l-0.589,2.364c-0.673,0.294 -0.942,0.555 -0.85,1.439l0.213,1.952l-0.531,0.204c0.044,-0.782 -1.041,-0.793 -1.041,-0.793c-0.792,-0.045 -0.927,0.631 -0.882,1.281c0.118,1.69 -0.497,4.373 -1.914,4.845c-0.559,0.186 -1.614,0.381 -1.791,-0.377c-0.216,-0.927 -1.97,-2.767 -1.97,-2.767c-2.109,-2.041 -2.637,-5.525 -1.641,-8.187c0.302,-0.805 0.896,-1.645 1.514,-2.237c1.314,-1.257 2.969,-1.876 4.714,-2.103c0,0 2.403,-0.293 3.754,0.655c0.837,0.589 1.387,1.127 1.745,1.596c0,0 0.512,1.085 -0.731,2.128Z" style="fill:#3f1902;fill-rule:nonzero;"/><path d="M49.821,87.081c-0.153,0.135 -0.356,0.219 -0.616,0.232c-0.702,0.034 -1.326,-0.585 -1.394,-1.383c-0.067,-0.797 0.447,-1.471 1.148,-1.505c0.332,-0.016 0.648,0.115 0.895,0.341c0.359,0.331 0.411,0.98 0.36,1.434c-0.041,0.363 -0.162,0.678 -0.393,0.881Z" style="fill:#f8a07d;fill-rule:nonzero;"/><path d="M49.29,85.15c-0.069,-0.417 -0.891,0.037 -0.747,0.265c0.083,0.132 0.237,0.222 0.36,0.309c0.169,0.121 0.254,0.236 0.29,0.441c0.005,0.025 0.014,0.097 -0.01,0.116c-0.104,0.083 -0.49,-0.303 -0.574,-0.384c-0.166,-0.16 -0.206,-0.449 -0.146,-0.664c0.067,-0.229 0.207,-0.344 0.447,-0.344c0.19,-0.001 0.386,0 0.389,0.237c0,0.005 -0.006,0.045 -0.009,0.024Z" style="fill:#e98b70;fill-rule:nonzero;"/><path d="M49.046,85.602c0.083,-0.095 0.172,-0.026 0.266,0.033c0.087,0.056 0.14,0.14 0.167,0.238c0.063,0.215 0.052,0.508 -0.06,0.706c-0.092,0.16 -0.256,0.265 -0.441,0.271c-0.255,0.009 -0.345,-0.212 -0.369,-0.427c-0.006,-0.057 -0.02,-0.195 0.035,-0.234c0.059,-0.042 0.108,0.05 0.151,0.089c0.061,0.05 0.145,0.065 0.222,0.067c0.146,0.004 0.284,-0.08 0.369,-0.193c0.014,-0.021 0.027,-0.045 0.034,-0.069c0.009,0.142 0.003,0.173 -0.016,0.097c-0.014,-0.036 -0.032,-0.068 -0.055,-0.097c-0.065,-0.094 -0.169,-0.155 -0.241,-0.244c-0.034,-0.04 -0.104,-0.188 -0.062,-0.237Z" style="fill:#e98b70;fill-rule:nonzero;"/><path d="M84.289,123.729c-0.325,-0.482 -0.041,-0.733 -0.699,-0.754c-0.75,-0.025 -1.421,-0.395 -1.93,-0.381c-0.886,0.025 -4.233,0.806 -1.987,2.721c0.523,0.448 2.019,2.447 3.054,1.855c1.53,-0.877 1.01,-0.554 1.788,-2.457l-0.226,-0.984Z" style="fill:#f7a583;fill-rule:nonzero;"/><path d="M53.078,99.155c-1.172,1.826 -0.643,4.255 1.182,5.427c1.826,1.173 4.255,0.643 5.427,-1.182c1.173,-1.826 0.643,-4.255 -1.183,-5.427c-1.824,-1.172 -4.254,-0.643 -5.426,1.182Z" style="fill:#f7a583;fill-rule:nonzero;"/><path d="M58.002,113.71c0.51,5.355 0.84,18.47 0.84,18.47c-1.901,5.073 -20.031,0.792 -20.137,-0.364c-0.126,-1.384 0.245,-11.131 0.525,-16.831c0,0 8.353,-5.368 18.772,-1.275Z" style="fill:#ffd47c;fill-rule:nonzero;"/><path d="M55.535,95.695c4.775,1.344 5.369,7.123 5.369,7.123l2.156,9.491c0,0 -5.426,4.303 -8.733,3.092c0,0 -2.694,-7.164 -3.539,-14.305c0,0 0.034,-5.245 4.747,-5.401Z" style="fill:#ffd47c;fill-rule:nonzero;"/><path d="M52.775,79.408c-0.539,0.435 -1.226,0.15 -1.843,0.007c-0.841,0.987 0.166,1.972 -1.108,2.45c-0.675,0.253 -1.673,0.326 -2.42,0.446c-0.597,0.097 -1.2,-0.042 -1.627,0.404c-0.462,0.483 -0.024,1.986 -0.57,2.274c-0.955,0.503 -1.703,-2.109 -2.92,-1.902c-1.038,0.176 -1.222,1.823 -0.858,2.633c-0.122,-0.106 -0.208,-0.15 -0.272,-0.184c-0.495,-1.29 -1.127,-1.313 -1.673,-2.23c-0.845,-1.422 -0.702,-1.083 -0.871,-2.448c-0.002,-0.012 0.167,-0.598 0.169,-0.606c0.397,-1.453 1.076,-1.7 1.402,-2.317c0.344,-0.651 0.876,-1.107 1.317,-1.68c0.407,-0.529 0.611,-1.241 1.078,-1.713c0.709,-0.717 1.871,-1.077 2.847,-1.205c1.051,-0.138 2.05,0.514 3.091,0.331c0.427,-0.075 0.827,-0.462 1.255,-0.438c0.522,0.029 0.884,0.548 1.336,0.751c0.84,0.378 2.163,0.225 2.88,0.816c0.793,0.653 0.622,1.597 0.134,2.397c-0.274,0.449 -0.829,0.707 -1.076,1.173c-0.068,0.128 -0.254,1.028 -0.271,1.041Z" style="fill:#3f1902;fill-rule:nonzero;"/><path d="M200.312,75.592c0,0 -4.352,7.612 -7.792,16.195c0,0 0.063,1.632 1.266,1.128c1.201,-0.503 10.906,-14.248 10.916,-15.5c0.025,-3.216 -4.39,-1.823 -4.39,-1.823Z" style="fill:#f7a583;fill-rule:nonzero;"/><path d="M190.199,95.054l1.047,-0.356c0,0 -1.774,1.092 -2.59,0.659c0,0 -0.19,-0.05 -0.012,-0.35c0,0 1.688,-0.587 2.371,-1.034c0,0 -1.562,0.929 -2.801,1.181c0,0 -0.566,-0.163 -0.145,-0.601c-0.429,-0.029 -0.18,-0.383 -0.18,-0.383c0,0 0.285,-0.299 1.011,-0.799c0,0 1.113,-0.777 2.315,-1.842c0,0 -1.339,-0.384 -1.103,-1.1l1.997,0.373l1.862,0.518l0.532,0.988l-1.268,1.623c0,0 -1.375,1.118 -2.254,1.424c0,0 -2.58,0.7 -0.782,-0.301Z" style="fill:#f7a583;fill-rule:nonzero;"/><path d="M146.33,121.309c0.004,-0.347 0.185,-0.662 0.561,-0.916c0.06,-0.041 0.124,-0.077 0.19,-0.111c0.02,-0.011 0.042,-0.022 0.063,-0.032c0.048,-0.022 0.096,-0.044 0.145,-0.065c0.012,-0.005 0.023,-0.012 0.037,-0.016c0.01,-0.005 0.023,-0.008 0.034,-0.011c0.079,-0.031 0.159,-0.059 0.244,-0.084c0.002,0 0.003,-0.001 0.005,-0.001c0,0 0.001,0 0.001,-0.001c0.084,-0.025 0.174,-0.047 0.263,-0.067c0.01,-0.002 0.02,-0.006 0.032,-0.008c0.012,-0.002 0.027,-0.004 0.039,-0.008c0.105,-0.022 0.211,-0.043 0.321,-0.062c0.003,0 0.007,0 0.01,-0.001c0.012,-0.001 0.024,-0.003 0.035,-0.006c0.109,-0.017 0.218,-0.032 0.33,-0.047c0.015,-0.002 0.029,-0.005 0.043,-0.006c0.12,-0.016 0.241,-0.029 0.362,-0.044c0.008,-0.001 0.015,-0.001 0.021,-0.002c0.027,-0.004 0.055,-0.006 0.082,-0.009c0.081,-0.009 0.162,-0.018 0.244,-0.028c0.114,-0.013 0.227,-0.028 0.339,-0.041c0.022,-0.004 0.045,-0.006 0.068,-0.009c0.111,-0.015 0.222,-0.031 0.331,-0.049c0.058,-0.009 0.116,-0.018 0.173,-0.028c0.117,-0.023 0.233,-0.046 0.351,-0.072c0.023,-0.005 0.044,-0.009 0.067,-0.015c0.083,-0.018 0.167,-0.038 0.251,-0.06c0.002,0 0.004,-0.001 0.007,-0.001c0.085,-0.022 0.169,-0.045 0.251,-0.069c0.026,-0.008 0.051,-0.016 0.077,-0.023c0.058,-0.018 0.114,-0.036 0.171,-0.054c0.028,-0.009 0.056,-0.018 0.083,-0.028c0.057,-0.019 0.112,-0.04 0.167,-0.06c0.022,-0.009 0.046,-0.017 0.067,-0.026c0.073,-0.029 0.143,-0.059 0.211,-0.089c0.105,-0.048 0.624,-0.348 0.928,-0.606l-0.067,7.747c-0.304,0.257 -0.824,0.558 -0.929,0.605c-0.068,0.032 -0.139,0.061 -0.212,0.091c-0.005,0.001 -0.01,0.004 -0.015,0.006c-0.016,0.006 -0.032,0.012 -0.048,0.017c-0.055,0.022 -0.113,0.042 -0.171,0.063c-0.027,0.009 -0.054,0.018 -0.081,0.027c-0.056,0.019 -0.113,0.036 -0.171,0.054c-0.018,0.004 -0.035,0.01 -0.051,0.016c-0.01,0.003 -0.019,0.005 -0.028,0.006c-0.082,0.025 -0.165,0.048 -0.248,0.069c-0.005,0.002 -0.008,0.002 -0.012,0.003c-0.082,0.021 -0.164,0.04 -0.248,0.06c-0.009,0.002 -0.018,0.004 -0.027,0.006c-0.014,0.003 -0.027,0.005 -0.041,0.008c-0.117,0.025 -0.234,0.05 -0.35,0.07c-0.048,0.009 -0.096,0.018 -0.145,0.026c-0.009,0.003 -0.02,0.003 -0.03,0.005c-0.108,0.018 -0.217,0.034 -0.327,0.047c-0.025,0.004 -0.05,0.007 -0.075,0.01c-0.108,0.014 -0.217,0.028 -0.327,0.04c-0.003,0 -0.007,0.001 -0.009,0.001c-0.078,0.009 -0.156,0.018 -0.233,0.027c-0.039,0.004 -0.078,0.009 -0.116,0.013c-0.12,0.013 -0.239,0.028 -0.358,0.044c-0.014,0.001 -0.028,0.003 -0.043,0.004c-0.11,0.015 -0.221,0.031 -0.331,0.049c-0.014,0.002 -0.029,0.004 -0.044,0.007c-0.109,0.019 -0.217,0.039 -0.322,0.062c-0.022,0.004 -0.046,0.009 -0.069,0.014c-0.09,0.022 -0.179,0.043 -0.265,0.069c0,0 -0.001,0 -0.003,0c-0.084,0.025 -0.167,0.054 -0.247,0.085c-0.023,0.008 -0.046,0.017 -0.07,0.027c-0.05,0.021 -0.097,0.042 -0.145,0.066c-0.021,0.01 -0.043,0.019 -0.063,0.03c-0.066,0.035 -0.13,0.072 -0.19,0.111c-0.377,0.255 -0.557,0.571 -0.56,0.917l0.067,-7.747Z" style="fill:#004e89;fill-rule:nonzero;"/><path d="M116.075,128.61c-0.004,-0.014 -0.007,-0.029 -0.011,-0.044c-0.002,-0.013 -0.005,-0.027 -0.007,-0.04c-0.002,-0.005 -0.002,-0.009 -0.003,-0.014c-0.003,-0.02 -0.005,-0.041 -0.006,-0.061c-0.003,-0.016 -0.005,-0.031 -0.006,-0.046c-0.001,-0.022 -0.002,-0.043 -0.002,-0.066c-0.001,-0.012 -0.003,-0.024 -0.003,-0.036c0,-0.006 0,-0.011 0,-0.016l0.069,-7.747c-0.001,0.018 0.001,0.035 0.001,0.053c0,0.021 0.002,0.044 0.003,0.065c0.001,0.015 0.003,0.031 0.005,0.045c0.003,0.022 0.005,0.041 0.008,0.063c0.003,0.017 0.006,0.035 0.01,0.053c0.003,0.015 0.006,0.029 0.009,0.045c0.005,0.018 0.011,0.036 0.015,0.054c0.005,0.015 0.008,0.028 0.013,0.043c0.003,0.007 0.005,0.014 0.007,0.022c0.02,0.053 0.041,0.105 0.067,0.155c0,0.002 0.001,0.003 0.001,0.004c0.025,0.048 0.055,0.096 0.086,0.142c0.005,0.007 0.009,0.015 0.015,0.023c0.032,0.044 0.068,0.088 0.105,0.13c0.011,0.011 0.021,0.024 0.033,0.035c0.011,0.012 0.023,0.025 0.037,0.037c0.014,0.014 0.028,0.027 0.044,0.042c0.014,0.012 0.026,0.024 0.041,0.036c0.012,0.011 0.026,0.022 0.039,0.033c0.024,0.019 0.049,0.037 0.075,0.055c0.012,0.01 0.026,0.021 0.039,0.028c0.03,0.021 0.059,0.04 0.09,0.058c0.012,0.008 0.022,0.015 0.035,0.022c0.027,0.017 0.055,0.032 0.084,0.047c0.014,0.007 0.027,0.015 0.039,0.022c0.043,0.021 0.087,0.042 0.133,0.063c0.088,0.037 0.18,0.07 0.274,0.1c0.03,0.011 0.063,0.018 0.096,0.028c0.063,0.018 0.126,0.037 0.193,0.053c0.017,0.004 0.035,0.008 0.052,0.011c0.075,0.017 0.15,0.032 0.226,0.045c0.031,0.006 0.062,0.01 0.093,0.015c0.071,0.012 0.143,0.022 0.216,0.031c0.023,0.004 0.047,0.006 0.072,0.008c0.094,0.012 0.19,0.022 0.287,0.029c0.06,0.005 0.122,0.009 0.183,0.012c0.051,0.003 0.103,0.007 0.155,0.009c0.062,0.005 0.125,0.006 0.189,0.008c0.05,0.001 0.1,0.005 0.152,0.006c0.121,0.003 0.242,0.005 0.365,0.006c0.003,0 0.006,0 0.009,0c0.144,0.003 0.288,0.004 0.432,0.005c0.091,0.001 0.183,0.002 0.274,0.003c0.046,0.001 0.091,0.003 0.136,0.003c0.078,0.001 0.156,0.003 0.234,0.004c0.019,0.001 0.039,0.001 0.059,0.002c0.035,0 0.067,0.003 0.101,0.004c0.059,0.001 0.118,0.003 0.177,0.007c0.055,0.002 0.109,0.005 0.165,0.009c0.056,0.003 0.113,0.006 0.169,0.01c0.019,0.002 0.039,0.003 0.058,0.004l0,0.001l0,-0.001c0.063,0.005 0.125,0.012 0.187,0.018c0.014,0.001 0.026,0.003 0.039,0.004c0.081,0.009 0.163,0.018 0.242,0.03c0.009,0.001 0.018,0.004 0.028,0.006c0.119,0.017 0.235,0.037 0.349,0.062c0.002,0.001 0.007,0.001 0.01,0.002c0.002,0.001 0.008,0.003 0.012,0.004c0.004,0.001 0.01,0.002 0.015,0.004c0.008,0.001 0.016,0.005 0.025,0.007c0.006,0.002 0.013,0.003 0.021,0.006c0.009,0.003 0.02,0.006 0.031,0.01c0.008,0.002 0.017,0.005 0.025,0.008c0.013,0.004 0.027,0.008 0.041,0.013c0.009,0.003 0.017,0.005 0.026,0.008c0.016,0.005 0.031,0.01 0.048,0.016c0.011,0.002 0.02,0.006 0.03,0.009c0.017,0.006 0.035,0.013 0.054,0.018c0.01,0.004 0.02,0.007 0.03,0.011c0.021,0.007 0.04,0.014 0.06,0.021c0.012,0.003 0.023,0.007 0.034,0.011c0.019,0.007 0.04,0.015 0.06,0.022c0.014,0.004 0.026,0.009 0.04,0.013c0.019,0.007 0.038,0.014 0.057,0.02c0.016,0.006 0.032,0.012 0.048,0.019c0.018,0.006 0.037,0.013 0.056,0.02c0.016,0.006 0.033,0.012 0.05,0.018c0.019,0.007 0.038,0.015 0.058,0.021c0.017,0.007 0.034,0.014 0.052,0.02c0.019,0.008 0.038,0.015 0.057,0.022c0.017,0.007 0.034,0.014 0.051,0.021c0.019,0.006 0.039,0.014 0.059,0.021c0.017,0.008 0.034,0.015 0.051,0.022c0.019,0.006 0.038,0.015 0.057,0.022c0.017,0.007 0.034,0.015 0.05,0.022c0.022,0.008 0.041,0.017 0.061,0.024c0.015,0.007 0.029,0.013 0.044,0.02c0.034,0.014 0.068,0.028 0.101,0.044c0.048,0.02 0.095,0.042 0.139,0.063l-0.068,7.746c-0.044,-0.02 -0.09,-0.041 -0.139,-0.063c-0.033,-0.014 -0.067,-0.029 -0.101,-0.044c-0.011,-0.006 -0.022,-0.009 -0.034,-0.013c-0.023,-0.012 -0.047,-0.021 -0.071,-0.031c-0.013,-0.006 -0.028,-0.011 -0.042,-0.017c-0.021,-0.009 -0.044,-0.018 -0.065,-0.027c-0.016,-0.006 -0.032,-0.012 -0.046,-0.018c-0.022,-0.008 -0.042,-0.017 -0.064,-0.025c-0.016,-0.007 -0.032,-0.012 -0.048,-0.018c-0.021,-0.009 -0.041,-0.016 -0.061,-0.024c-0.017,-0.007 -0.034,-0.013 -0.051,-0.019c-0.019,-0.007 -0.039,-0.015 -0.058,-0.023c-0.017,-0.005 -0.033,-0.011 -0.048,-0.018c-0.021,-0.006 -0.04,-0.013 -0.059,-0.02c-0.016,-0.006 -0.032,-0.011 -0.046,-0.017c-0.02,-0.007 -0.039,-0.014 -0.057,-0.02c-0.017,-0.006 -0.034,-0.013 -0.05,-0.018c-0.016,-0.005 -0.031,-0.011 -0.047,-0.016c-0.017,-0.007 -0.033,-0.013 -0.05,-0.017c-0.015,-0.006 -0.029,-0.01 -0.044,-0.016c-0.015,-0.006 -0.029,-0.009 -0.043,-0.015c-0.015,-0.004 -0.029,-0.01 -0.043,-0.013c-0.013,-0.006 -0.026,-0.009 -0.038,-0.014c-0.014,-0.004 -0.027,-0.008 -0.04,-0.012c-0.011,-0.004 -0.022,-0.008 -0.034,-0.012c-0.011,-0.003 -0.022,-0.006 -0.032,-0.01c-0.012,-0.003 -0.022,-0.006 -0.031,-0.009c-0.009,-0.003 -0.019,-0.006 -0.027,-0.009c-0.009,-0.002 -0.016,-0.004 -0.024,-0.007c-0.008,-0.002 -0.016,-0.004 -0.022,-0.006c-0.006,-0.001 -0.012,-0.003 -0.016,-0.004c-0.008,-0.002 -0.017,-0.004 -0.022,-0.005c-0.114,-0.026 -0.231,-0.046 -0.35,-0.064c-0.088,-0.013 -0.177,-0.026 -0.268,-0.035c-0.015,-0.001 -0.03,-0.003 -0.045,-0.004c-0.079,-0.008 -0.159,-0.016 -0.241,-0.022c-0.055,-0.003 -0.112,-0.008 -0.168,-0.011c-0.056,-0.003 -0.11,-0.006 -0.166,-0.009c-0.057,-0.002 -0.116,-0.005 -0.173,-0.007c-0.056,-0.001 -0.11,-0.003 -0.165,-0.004c-0.076,-0.003 -0.152,-0.004 -0.227,-0.005c-0.048,-0.001 -0.095,-0.002 -0.143,-0.003c-0.09,0 -0.18,-0.001 -0.271,-0.002c-0.119,-0.002 -0.237,-0.003 -0.356,-0.005c-0.029,0 -0.059,0 -0.089,0c-0.12,-0.002 -0.241,-0.005 -0.359,-0.008c-0.007,0 -0.013,0 -0.019,0l0,-0.001l0,0.001c-0.049,-0.001 -0.099,-0.004 -0.148,-0.006c-0.059,-0.002 -0.118,-0.004 -0.178,-0.006c-0.053,-0.003 -0.106,-0.007 -0.159,-0.011c-0.06,-0.003 -0.119,-0.006 -0.178,-0.011c-0.006,0 -0.012,0 -0.019,-0.001c-0.091,-0.008 -0.181,-0.017 -0.27,-0.027c-0.023,-0.002 -0.045,-0.006 -0.067,-0.008c-0.045,-0.007 -0.09,-0.011 -0.134,-0.017l0,-0.002l0,0.002c-0.03,-0.004 -0.057,-0.01 -0.086,-0.015c-0.031,-0.004 -0.061,-0.01 -0.091,-0.015c-0.076,-0.013 -0.151,-0.029 -0.226,-0.046c-0.018,-0.003 -0.036,-0.006 -0.054,-0.011c-0.004,-0.001 -0.01,-0.002 -0.015,-0.002c-0.062,-0.016 -0.12,-0.034 -0.18,-0.051c-0.031,-0.009 -0.063,-0.017 -0.093,-0.026c-0.094,-0.031 -0.185,-0.063 -0.273,-0.101c-0.047,-0.02 -0.091,-0.041 -0.134,-0.063c-0.015,-0.008 -0.028,-0.017 -0.043,-0.024c-0.027,-0.014 -0.054,-0.029 -0.08,-0.044c-0.002,-0.002 -0.007,-0.003 -0.009,-0.005c-0.01,-0.007 -0.019,-0.013 -0.028,-0.02c-0.031,-0.017 -0.059,-0.036 -0.086,-0.054c-0.015,-0.01 -0.028,-0.02 -0.042,-0.03c-0.025,-0.018 -0.05,-0.036 -0.072,-0.056c-0.008,-0.005 -0.017,-0.011 -0.025,-0.018l0,-0.001l0,0.001c-0.006,-0.004 -0.011,-0.01 -0.017,-0.014c-0.014,-0.012 -0.026,-0.024 -0.04,-0.035c-0.014,-0.015 -0.03,-0.029 -0.045,-0.043c-0.012,-0.012 -0.025,-0.024 -0.036,-0.037c-0.008,-0.007 -0.016,-0.015 -0.024,-0.023c-0.003,-0.005 -0.005,-0.008 -0.009,-0.012c-0.038,-0.043 -0.073,-0.087 -0.105,-0.131c-0.002,-0.003 -0.004,-0.005 -0.007,-0.008c-0.003,-0.004 -0.005,-0.01 -0.008,-0.014c-0.032,-0.047 -0.061,-0.093 -0.086,-0.142c0,0 -0.001,0 -0.001,-0.001c0,-0.001 -0.001,-0.002 -0.001,-0.003c-0.025,-0.05 -0.046,-0.102 -0.064,-0.154c-0.002,-0.004 -0.005,-0.009 -0.006,-0.013l0,-0.003l0,0.003c-0.001,-0.004 -0.002,-0.007 -0.003,-0.01c-0.005,-0.014 -0.008,-0.028 -0.013,-0.042c-0.004,-0.018 -0.01,-0.036 -0.014,-0.056Z" style="fill:#004e89;fill-rule:nonzero;"/><path d="M113.155,130.283l-0.068,7.746l33.309,14.017l0.068,-7.747l-33.309,-14.016Z" style="fill:#0861a2;fill-rule:nonzero;"/><path d="M146.464,144.299l-0.068,7.747l25.984,-17.533l0.068,-7.748l-25.984,17.534Z" style="fill:#004e89;fill-rule:nonzero;"/><path d="M172.448,126.765l-13.781,-5.798c-0.469,0.275 -1.021,0.748 -1.076,0.818c-0.644,0.847 0.187,2.005 -0.894,2.733c-1.331,0.898 -4.603,0.702 -7.311,-0.437c-0.076,-0.033 -0.151,-0.064 -0.225,-0.098c-2.544,-1.134 -3.562,-2.718 -2.27,-3.59c0.827,-0.559 2.252,-0.522 3.412,-0.736c0.601,-0.111 1.219,-0.276 1.703,-0.497c0.105,-0.048 0.624,-0.348 0.928,-0.606l-13.795,-5.805l-10.763,7.263c-0.222,-0.076 -0.462,-0.174 -0.665,-0.266c-0.243,-0.107 -0.435,-0.204 -0.485,-0.236c-0.422,-0.26 -0.739,-0.59 -0.955,-0.91c-0.409,-0.609 -0.368,-1.351 -1.374,-1.8c-1.757,-0.74 -4.85,-0.166 -6.963,1.26c-2.09,1.409 -2.435,3.124 -0.794,3.855c1.442,0.608 3.61,0.179 5.212,0.532c0.121,0.027 0.883,0.281 1.414,0.519c0.048,0.02 0.095,0.042 0.139,0.063l-10.75,7.254l33.309,14.016l25.984,-17.534Z" style="fill:#186dab;fill-rule:nonzero;"/><path d="M191.692,207.579c0,4.676 -8.519,8.465 -19.026,8.465c-10.507,0 -19.025,-3.789 -19.025,-8.465c0,-4.675 8.518,-8.465 19.025,-8.465c10.507,0 19.026,3.79 19.026,8.465Z" style="fill:#9eacd4;fill-rule:nonzero;"/><path d="M163.023,207.321c0,0 -2.018,-0.369 -1.451,1.277c0,0 4.713,2.024 8.003,1.568c0,0 2.313,-0.078 1.95,-2.587l0.038,-2.04l-3.102,0.589l0.177,1.937l-5.615,-0.744Z" style="fill:#e69375;fill-rule:nonzero;"/><path d="M171.525,207.579c0.002,0.322 -0.099,0.63 -0.309,0.875c-0.812,0.935 -2.409,0.963 -3.532,0.892c-1.779,-0.113 -3.631,-0.383 -5.375,-0.751c-0.384,-0.082 -0.491,-0.207 -0.495,-0.32c0.201,-0.45 0.562,-0.837 1.209,-0.954l-1.718,-0.22c-1.586,-0.057 -2.304,0.307 -2.675,0.547c-0.439,1.254 1.697,2.092 1.697,2.092c0,0 2.269,0.858 5.003,1.395c0,0 6.031,1.423 6.76,-0.433l-0.565,-3.123Z" style="fill:#4f1431;fill-rule:nonzero;"/><path d="M175.003,204.518c0,0 -2.018,-0.369 -1.45,1.277c0,0 4.711,2.023 8.002,1.568c0,0 2.313,-0.078 1.951,-2.588l0.038,-2.038l-3.102,0.586l0.176,1.938l-5.615,-0.743Z" style="fill:#e69375;fill-rule:nonzero;"/><path d="M183.506,204.775c0.002,0.323 -0.099,0.632 -0.31,0.875c-0.812,0.937 -2.408,0.965 -3.532,0.893c-1.779,-0.113 -3.63,-0.382 -5.374,-0.752c-0.384,-0.081 -0.492,-0.207 -0.496,-0.32c0.201,-0.448 0.563,-0.836 1.209,-0.953l-1.718,-0.22c-1.585,-0.056 -2.305,0.307 -2.674,0.546c-0.439,1.255 1.697,2.091 1.697,2.091c0,0 2.268,0.86 5.003,1.398c0,0 6.031,1.421 6.76,-0.433l-0.565,-3.125Z" style="fill:#4f1431;fill-rule:nonzero;"/><path d="M174.445,150.059c0,3.178 2.577,5.758 5.759,5.758c3.179,0 5.758,-2.58 5.758,-5.758c0,-3.182 -2.579,-5.76 -5.758,-5.76c-3.182,0 -5.759,2.578 -5.759,5.76Z" style="fill:#03468b;fill-rule:nonzero;"/><path d="M183.828,177.781c0,0 -0.081,1.447 -2.681,1.484c0,0 -2.462,0.839 -3.526,-2.367c-4.188,-12.625 -3.08,-25.799 -3.08,-25.799c0,0 5.913,-3.294 11.421,-1.04c0,0 -0.89,16.571 -2.134,27.722Z" style="fill:#03468b;fill-rule:nonzero;"/><path d="M177.621,176.898c0,0 2.03,27.286 2.219,28.261c1.979,1.257 3.729,-0.035 3.729,-0.035c-0.01,-1.338 1.449,-12.496 1.599,-14.591c0.259,-3.601 0.691,-8.151 -1.585,-13.326l-5.962,-0.309Z" style="fill:#03468b;fill-rule:nonzero;"/><path d="M167.137,178.614c0,0 -0.555,1.339 -3.021,0.51c0,0 -2.601,-0.022 -2.542,-3.399c0.23,-13.299 6.058,-27.082 6.058,-27.082c0,0 6.564,-0.628 11.015,3.323c0,0 -6.642,16.537 -11.51,26.648Z" style="fill:#0558a8;fill-rule:nonzero;"/><path d="M167.78,148.15c-1.055,3.001 0.524,6.287 3.526,7.342c3,1.053 6.287,-0.525 7.341,-3.526c1.054,-3 -0.525,-6.288 -3.526,-7.341c-3.001,-1.054 -6.288,0.525 -7.341,3.525Z" style="fill:#0558a8;fill-rule:nonzero;"/><path d="M185.962,149.22c-0.696,-6.404 -3.909,-9.376 -3.909,-9.376l-11.132,-1.406c0,0 -3.069,5.34 -3.389,10.782c1.33,3.63 6.073,4.687 6.073,4.687l3.602,1.07c0,0 8.161,-1.241 8.755,-5.757Z" style="fill:#0558a8;fill-rule:nonzero;"/><path d="M162.088,178.374c0,0 5.521,28.664 5.853,29.599c-0.145,-0.07 2.61,1.266 3.83,-0.459c-0.208,-1.322 -0.324,-15.881 -0.486,-17.976c-0.277,-3.601 -0.238,-6.96 -3.254,-11.741c0,0 -7.539,-5.396 -5.943,0.577Z" style="fill:#0558a8;fill-rule:nonzero;"/><path d="M186.786,128.187c0,0 -2.028,2.387 -6.062,8.153l0.698,1.181c0,0 6.908,-3.48 9.111,-7.386l-3.747,-1.948Z" style="fill:#e69375;fill-rule:nonzero;"/><path d="M181.076,119.642c0,0 5.2,11.347 8.324,10.915c0,0 1.077,0.068 1.293,-0.744c0,0 2.205,-1.956 -6.966,-16.066c0,0 -0.895,-1.198 -2.731,-0.889c0,0 -2.786,1.84 0.08,6.784Z" style="fill:#e69375;fill-rule:nonzero;"/><rect x="172.666" y="110.76" width="5.622" height="5.975" style="fill:#f6b78f;fill-rule:nonzero;"/><path d="M169.189,110.896l-0.211,-0.956c0,0 -0.421,-3.498 -0.421,-3.499c-0.053,-0.439 0.043,-1.002 0.208,-1.421c0.179,-0.455 0.33,-0.938 0.286,-1.453c-0.21,-2.502 1.401,-3.657 1.401,-3.657c1.919,-2.036 5.616,-1.549 5.617,-1.549c1.909,0.364 3.547,1.172 4.407,2.814c0.78,1.488 1.142,3.274 0.526,4.86c-0.674,1.739 -1.854,3.064 -3.378,4.244c-0.976,0.755 -1.928,0.805 -3.165,1.145c-0.861,0.236 -2.484,0.317 -3.382,0.276c-0.47,-0.022 -1.767,-0.256 -1.888,-0.804Z" style="fill:#f7a583;fill-rule:nonzero;"/><path d="M171.749,107.658c0.278,-0.394 1.287,-0.637 1.288,-0.637c1.22,0 1.061,1.629 1.175,2.334c0.038,0.23 0.083,0.466 0.134,0.701c0.581,2.071 2.323,2.053 3.81,2.303c0.055,-0.032 0.113,-0.065 0.174,-0.098c0.269,-0.918 1.125,-1.872 1.125,-1.872c2.235,-1.931 2.963,-5.402 2.112,-8.133c-0.256,-0.826 -0.805,-1.704 -1.393,-2.332c-1.25,-1.338 -2.877,-2.053 -4.617,-2.38c-1.729,-0.326 -7.916,0.513 -6.228,4.271c0,0 2.546,2.937 2.42,5.843Z" style="fill:#340e08;fill-rule:nonzero;"/><path d="M171.749,107.658c0.22,-0.559 0.765,-0.989 1.377,-0.807c0.45,0.136 0.718,0.531 0.674,0.994c-0.009,0.1 -0.032,0.199 -0.041,0.3c-0.178,1.071 -1.308,1.48 -1.308,1.48" style="fill:#f9b78f;fill-rule:nonzero;"/><path d="M173.012,107.358c-0.062,-0.045 -0.192,-0.069 -0.271,-0.073c-0.41,-0.027 -0.74,0.605 -0.33,0.718c0.153,0.151 -0.006,0.324 -0.006,0.324c-0.141,0.154 -0.331,0.374 -0.288,0.59c0.026,0.128 0.168,0.197 0.296,0.228c0.104,0.026 0.123,-0.055 0.042,-0.093c-0.062,-0.03 -0.115,-0.077 -0.156,-0.128c-0.004,-0.008 -0.008,-0.015 -0.013,-0.022c-0.004,-0.004 -0.006,-0.01 -0.009,-0.017c-0.013,-0.03 -0.013,-0.062 -0.004,-0.093c0.091,0.065 0.246,0.08 0.317,-0.004c0.078,-0.093 0.02,-0.24 0.046,-0.347c0.019,-0.074 0.054,-0.145 0.095,-0.212c0.187,-0.313 -0.151,-0.366 -0.151,-0.366c-0.052,0.001 -0.091,0.004 -0.125,0.009c-0.172,-0.089 0.02,-0.347 0.125,-0.388c0.121,-0.047 0.27,-0.031 0.357,0.063c0.087,0.095 0.122,0.241 0.114,0.362c-0.01,0.148 -0.047,0.296 -0.111,0.433c-0.038,0.077 -0.085,0.168 -0.122,0.246c-0.042,0.087 0.059,0.127 0.102,0.038c0.09,-0.185 0.257,-0.457 0.293,-0.714c0.028,-0.213 -0.01,-0.417 -0.201,-0.554Z" style="fill:#de9e7e;fill-rule:nonzero;"/><path d="M171.749,107.658c0,0 0.049,-0.071 0.128,-0.197c0.038,-0.066 0.108,-0.122 0.171,-0.197c0.06,-0.067 0.168,-0.144 0.259,-0.201c0.105,-0.054 0.22,-0.11 0.35,-0.127c0.129,-0.016 0.266,-0.016 0.4,0.028c0.045,0.011 0.149,0.055 0.204,0.086c0.054,0.034 0.108,0.072 0.161,0.124c0.101,0.098 0.179,0.223 0.214,0.364c0.034,0.142 0.035,0.277 0.006,0.452l-0.015,0.123l-0.001,0.016l0,0.002c0,-0.008 -0.004,0.018 0.002,-0.015l-0.001,0.003l-0.001,0.008l-0.006,0.03l-0.013,0.061c-0.012,0.084 -0.037,0.149 -0.058,0.216c-0.049,0.135 -0.113,0.267 -0.19,0.38c-0.075,0.115 -0.163,0.214 -0.247,0.305c-0.171,0.175 -0.339,0.304 -0.462,0.384c-0.123,0.081 -0.199,0.122 -0.199,0.122c0,0 0.084,-0.017 0.224,-0.074c0.137,-0.059 0.338,-0.147 0.546,-0.312c0.102,-0.083 0.212,-0.178 0.306,-0.3c0.1,-0.119 0.188,-0.257 0.254,-0.418c0.033,-0.082 0.067,-0.169 0.082,-0.245l0.016,-0.06l0.008,-0.03l0.002,-0.008l0.003,-0.024l0.004,-0.016l0.018,-0.123c0.029,-0.153 0.04,-0.362 -0.006,-0.55c-0.051,-0.19 -0.162,-0.36 -0.301,-0.491c-0.037,-0.031 -0.072,-0.063 -0.111,-0.09l-0.129,-0.072c-0.092,-0.042 -0.139,-0.061 -0.248,-0.088c-0.173,-0.047 -0.351,-0.029 -0.506,0.007c-0.159,0.037 -0.287,0.12 -0.398,0.199c-0.112,0.094 -0.184,0.169 -0.247,0.268c-0.056,0.094 -0.116,0.168 -0.139,0.239c-0.053,0.139 -0.08,0.221 -0.08,0.221Z" style="fill:#de9e7e;fill-rule:nonzero;"/><path d="M172.451,109.363c0,0.187 -0.152,0.34 -0.341,0.34c-0.187,0 -0.34,-0.153 -0.34,-0.34c0,-0.188 0.153,-0.341 0.34,-0.341c0.189,0 0.341,0.153 0.341,0.341Z" style="fill:#fff;fill-rule:nonzero;"/><path d="M172.193,109.545c-0.15,0 -0.269,-0.121 -0.269,-0.27c0,-0.12 0.079,-0.218 0.186,-0.253c-0.187,0 -0.34,0.153 -0.34,0.341c0,0.187 0.153,0.34 0.34,0.34c0.189,0 0.341,-0.153 0.341,-0.34c0,-0.008 -0.002,-0.017 -0.002,-0.024c-0.029,0.117 -0.131,0.206 -0.256,0.206Z" style="fill:#e7e8e9;fill-rule:nonzero;"/><path d="M187.315,142.514c-0.023,-0.031 -6.206,-8.904 -6.206,-8.904c-0.29,-1.309 0.362,-3.913 0.362,-3.913l1.985,-13.645c-0.235,-1.563 -0.344,-3.549 -2.46,-3.194c-1.493,0.25 -1.788,0.459 -2.708,0.756c0.269,1.266 -1.918,2.08 -1.918,2.08c-3.008,1.299 -3.704,0.444 -3.704,0.444c-0.801,0.433 -3.509,1.786 -4.21,2.364c-0.732,0.6 -1.172,1.536 -0.943,3.11l2.165,12.933l-0.381,3.213l-3.955,10.028c1.223,-0.438 2.56,-0.616 3.854,-0.46c1.229,0.147 2.289,0.872 3.511,1.008c1.846,0.204 3.216,-0.463 4.609,-1.346c1.693,-0.365 3.506,-0.952 5.334,-1.875c0.04,0 0.077,-0.001 0.116,-0.001c1.381,0.008 2.944,-0.015 3.964,-1.097c0.214,-0.227 0.846,-1.125 0.585,-1.501Z" style="fill:#4f1431;fill-rule:nonzero;"/><path d="M165.898,139.204l0.036,-15.711c0.382,-4.304 2.522,-4.991 2.522,-4.991c4.321,-0.507 3.654,7.501 3.654,7.501l-1.803,13.535" style="fill:#f7a583;fill-rule:nonzero;"/><path d="M152.142,147.794c1.982,-1.061 2.16,-1.404 2.509,-1.902c1.507,-2.141 -1.539,-2.074 -2.305,-1.9c-0.441,0.101 -0.468,1.147 -1.833,2.424c0,0 -2.146,1.246 -2.674,1.158c0,0 -0.55,0.079 -0.55,0.474c0,0 1.506,0.891 4.853,-0.254Z" style="fill:#f7a583;fill-rule:nonzero;"/><path d="M166.224,137.549l-13.457,7.364c-0.582,1.62 0.166,1.853 0.166,1.853l10.418,-2.997c4.447,-1.191 6.21,-3.058 6.21,-3.058c0,0 1.945,-1.347 -0.537,-3.354c0,0 -1.13,-0.894 -2.8,0.192Z" style="fill:#f7a583;fill-rule:nonzero;"/><path d="M170.554,106.696c0.349,2.605 -0.044,6.054 1.254,8.902c0.578,1.267 1.216,1.895 0.869,3.366c-0.283,1.204 -0.853,2.339 -1.161,3.586c-0.682,2.75 0.245,5.438 3.451,4.442c1.537,-0.478 1.709,-0.47 3.109,0.072c1.175,0.456 2.28,0.584 3.449,0.015c1.812,-0.884 1.266,-2.217 2.282,-3.554c0.773,-1.018 1.867,-0.992 2.45,-2.361c0.704,-1.652 -0.134,-2.533 -0.991,-3.934c-0.893,-1.46 -1.036,-2.421 -0.742,-4.182c0.247,-1.479 -0.119,-2.226 -0.608,-3.586c-0.502,-1.393 -0.283,-2.607 -0.521,-4.004c-0.47,-2.763 -1.98,-6.512 -4.874,-7.323c-1.418,-0.397 -3.251,-0.707 -4.616,-0.206c-1.859,0.681 -3.928,1.408 -3.848,3.694c0.082,2.351 0.187,2.752 0.497,5.073Z" style="fill:#340e08;fill-rule:nonzero;"/><path d="M152.705,143.938c0,0 0.377,1.103 -0.996,0.833l-1.344,-1.024c0,0 -0.417,-0.222 -0.269,-0.622c0,0 0.16,-0.228 0.59,-0.002l2.019,0.815Z" style="fill:#f7a583;fill-rule:nonzero;"/><path d="M133.32,49.037c0,1.836 -1.489,3.325 -3.325,3.325c-1.837,0 -3.326,-1.489 -3.326,-3.325c0,-1.837 1.489,-3.326 3.326,-3.326c1.836,0 3.325,1.489 3.325,3.326Z" style="fill:#98c3e9;fill-rule:nonzero;"/><path d="M108.37,14.266c0,1.837 -1.488,3.326 -3.325,3.326c-1.836,0 -3.325,-1.489 -3.325,-3.326c0,-1.836 1.489,-3.325 3.325,-3.325c1.837,0 3.325,1.489 3.325,3.325Z" style="fill:#ffd47c;fill-rule:nonzero;"/><path d="M111.912,213.803l-10.427,0" style="fill:none;stroke:#699fd5;stroke-width:12.47px;"/><path d="M99.932,213.803l-5.213,0" style="fill:none;stroke:#699fd5;stroke-width:12.47px;"/><path d="M134.535,28.974l1.453,1.454" style="fill:none;stroke:#699fd5;stroke-width:12.47px;"/><path d="M137.013,31.453l1.453,1.453" style="fill:none;stroke:#699fd5;stroke-width:12.47px;"/><path d="M138.466,28.974l-1.453,1.454" style="fill:none;stroke:#699fd5;stroke-width:12.47px;"/><path d="M135.988,31.453l-1.453,1.453" style="fill:none;stroke:#699fd5;stroke-width:12.47px;"/><path d="M121.938,168.551l1.454,1.454" style="fill:none;stroke:#699fd5;stroke-width:12.47px;"/><path d="M124.418,171.03l1.453,1.453" style="fill:none;stroke:#699fd5;stroke-width:12.47px;"/><path d="M125.871,168.551l-1.453,1.454" style="fill:none;stroke:#699fd5;stroke-width:12.47px;"/><path d="M123.392,171.03l-1.454,1.453" style="fill:none;stroke:#699fd5;stroke-width:12.47px;"/><path d="M52.495,49.426c0,0.997 -0.807,1.804 -1.804,1.804c-0.996,0 -1.804,-0.807 -1.804,-1.804c0,-0.997 0.808,-1.804 1.804,-1.804c0.997,0 1.804,0.807 1.804,1.804Z" style="fill:none;stroke:#699fd5;stroke-width:12.47px;"/><path d="M171.553,57.889c0,0.997 -0.807,1.805 -1.804,1.805c-0.996,0 -1.803,-0.808 -1.803,-1.805c0,-0.996 0.807,-1.804 1.803,-1.804c0.997,0 1.804,0.808 1.804,1.804Z" style="fill:none;stroke:#699fd5;stroke-width:12.47px;"/></g></svg>